<?xml version="1.0" encoding="utf-8"?>
<!-- Generator: Adobe Illustrator 23.0.4, SVG Export Plug-In . SVG Version: 6.00 Build 0)  -->
<svg version="1.1" id="Layer_1" xmlns="http://www.w3.org/2000/svg" xmlns:xlink="http://www.w3.org/1999/xlink" x="0px" y="0px"
	 viewBox="0 0 1920 575.4" style="enable-background:new 0 0 1920 575.4;" xml:space="preserve">
<style type="text/css">
	.st0{opacity:0.3;}
	.st1{fill:#224B80;}
	.st2{fill:#FF9696;}
	.st3{fill:#1F417A;}
	.st4{fill:#8FC0FF;}
	.st5{fill:#FDA2A2;}
	.st6{fill:#92B3D6;}
	.st7{fill:url(#SVGID_1_);}
	.st8{opacity:0.8;fill:#4497FF;enable-background:new    ;}
	.st9{fill:#FC6464;}
	.st10{fill:#25497A;}
	.st11{fill:#B7DFE6;}
</style>
<title>landing page to animate-v2 new color boat repositioned</title>
<g id="background">
	<g id="Group_80" class="st0">
		<g id="Group_74">
			<g id="Group_72">
				<rect id="Rectangle_167" x="1084.7" y="437.9" class="st1" width="64.6" height="106.1"/>
				<rect id="Rectangle_168" x="1156.8" y="427.4" class="st1" width="64.6" height="106.1"/>
				<rect id="Rectangle_169" x="1175.3" y="416.9" class="st1" width="64.6" height="106.1"/>
				<rect id="Rectangle_170" x="1213.8" y="367.3" class="st1" width="42.8" height="155.8"/>
				<rect id="Rectangle_171" x="1213.8" y="348.4" class="st1" width="35.8" height="174.6"/>
				<rect id="Rectangle_172" x="1262.1" y="416.9" class="st1" width="42.8" height="155.8"/>
				<rect id="Rectangle_173" x="1283.2" y="320.6" class="st1" width="63.5" height="202.4"/>
				<rect id="Rectangle_174" x="1291.3" y="309.3" class="st1" width="48.9" height="213.7"/>
				<rect id="Rectangle_175" x="1301.1" y="298.7" class="st1" width="31" height="224.2"/>
				<rect id="Rectangle_176" x="1363.5" y="241.5" class="st1" width="42.8" height="289.7"/>
				<path id="Path_53" class="st1" d="M1406.4,241.5l62.9,16.3v273.4h-62.9V241.5z"/>
				<path id="Path_54" class="st1" d="M1392.1,167.9l13.1,58.7H1370L1392.1,167.9z"/>
				<rect id="Rectangle_177" x="1370" y="226.5" class="st1" width="35.3" height="25.6"/>
				<path id="Path_55" class="st1" d="M1405.3,226.5l58.4,15.4v25.6l-58.4-15.4V226.5z"/>
				<path id="Path_56" class="st1" d="M1391.9,167.9l53.5,20.1l18.2,54l-58.6-15.5L1391.9,167.9z"/>
				<rect id="Rectangle_178" x="1469.3" y="374" class="st1" width="49.4" height="179.9"/>
				<rect id="Rectangle_179" x="1516" y="429.7" class="st1" width="43.4" height="57.9"/>
				<rect id="Rectangle_180" x="1525.7" y="409.4" class="st1" width="12" height="57.9"/>
				<rect id="Rectangle_181" x="1544.6" y="234" class="st1" width="109" height="253.6"/>
				<rect id="Rectangle_182" x="1544.6" y="213.7" class="st1" width="33" height="273.9"/>
				<path id="Path_57" class="st1" d="M1570,109.8l52,13.6l31.7,110.7h-28.5l-80.7-20.4L1570,109.8z"/>
				<rect id="Rectangle_183" x="1544.6" y="213.7" class="st1" width="100.9" height="39.2"/>
				<path id="Path_58" class="st1" d="M1648.7,213.6l5,20.6L1648.7,213.6z"/>
				<rect id="Rectangle_184" x="1544.6" y="425.9" class="st1" width="584" height="61.7"/>
				<rect id="Rectangle_185" x="1660.2" y="411.6" class="st1" width="18.5" height="61.7"/>
				<rect id="Rectangle_186" x="1686.3" y="400.4" class="st1" width="11.4" height="61.7"/>
				<rect id="Rectangle_187" x="1702" y="376.3" class="st1" width="43.9" height="61.7"/>
				<rect id="Rectangle_188" x="1706.4" y="380.7" class="st1" width="43.9" height="61.7"/>
				<rect id="Rectangle_189" x="1907" y="419.9" class="st1" width="8.1" height="61.7"/>
				<rect id="Rectangle_190" x="1925.5" y="419.9" class="st1" width="10.9" height="61.7"/>
				<rect id="Rectangle_164" x="1062" y="524.5" class="st1" width="1748.7" height="64"/>
				<rect id="Rectangle_165" x="1083.6" y="487.6" class="st1" width="1715" height="100.8"/>
				<rect id="Rectangle_227" x="1249.6" y="427.4" class="st1" width="42.8" height="136.9"/>
				<rect id="Rectangle_228" x="1340.2" y="470.3" class="st1" width="42.8" height="46.7"/>
			</g>
			<g id="Group_63">
				<g id="Group_61">
					<g id="Group_60">
						<g id="Group_58">
							<path id="Path_142" class="st1" d="M1975.4,462.1V367h-11.5v-62.4h-47V367h-13.7l-8.4,18l-68.3-46.4v123.5H1975.4z"/>
							<path id="Path_145" class="st1" d="M1940.2,271.5c13.1,0,23.7,14.7,23.7,32.9s-10.6,32.9-23.7,32.9
								c-13-0.2-23.3-15-23.2-32.9C1916.8,286.3,1927.2,271.7,1940.2,271.5z"/>
							<path id="Path_143" class="st1" d="M1931.2,260.2h18.2V291h-18.2V260.2z"/>
							<ellipse id="Ellipse_3" class="st1" cx="1940.2" cy="260.2" rx="9.1" ry="12.6"/>
						</g>
					</g>
					<rect id="Rectangle_517" x="1822.1" y="317.7" class="st1" width="9.1" height="40.6"/>
				</g>
				<g id="Group_62">
					<g id="Group_60-2">
						<g id="Group_58-2">
							<path id="Path_142-2" class="st1" d="M1677.7,462.1V367h11.5v-62.4h47V367h13.7l8.4,18l68.4-46.4v123.5H1677.7z"/>
							<path id="Path_145-2" class="st1" d="M1712.9,271.5c-13.1,0-23.7,14.7-23.7,32.9s10.6,32.9,23.7,32.9
								c13-0.2,23.3-15,23.2-32.9C1736.2,286.3,1725.8,271.7,1712.9,271.5z"/>
							<path id="Path_143-2" class="st1" d="M1722,260.2h-18.2V291h18.2V260.2z"/>
							<ellipse id="Ellipse_3-2" class="st1" cx="1712.9" cy="260.2" rx="9.1" ry="12.6"/>
							<path id="Path_144-2" class="st1" d="M1716.9,236.4h-7.1v30.8h7.1V236.4z"/>
						</g>
					</g>
					<rect id="Rectangle_517-2" x="1821.9" y="317.7" class="st1" width="9.1" height="40.6"/>
				</g>
			</g>
		</g>
		<g id="Group_75">
			<g id="Group_73">
				<g id="Group_76">
					<rect id="Rectangle_521" x="1802.3" y="433.1" class="st2" width="43.7" height="24.6"/>
					<rect id="Rectangle_522" x="1850.9" y="433.1" class="st2" width="23.8" height="24.6"/>
					<path id="Path_148" class="st2" d="M1802.3,381.9c0,0,6.5-5.6,22-5.7c15.4-0.1,21.8,5.7,21.8,5.7v45.4h-43.7v-45.4H1802.3z"/>
					<rect id="Rectangle_523" x="1773.6" y="433.1" class="st2" width="23.3" height="24.6"/>
					<path id="Path_149" class="st2" d="M1773.6,402.7c6.8-6.9,14.6-12.7,23.3-17.5v42.1h-23.3V402.7z"/>
					<path id="Path_150" class="st2" d="M1874.7,402.7c-6.8-7.3-14.9-13.5-23.8-18.4v43.1h23.8V402.7z"/>
				</g>
				<path id="Subtraction_4" class="st2" d="M1708.8,290.3c3.5,0.1,6.7,2.2,8.9,6c2.6,4.4,4,9.4,4,14.4l0,0v16.6h-13.1v-36.9
					L1708.8,290.3L1708.8,290.3z M1704.9,291.3L1704.9,291.3v35.9h-9v-16.6l0,0c0-4.2,1-8.3,2.7-12.1
					C1699.7,295.6,1702,293,1704.9,291.3L1704.9,291.3z M1708.6,333.8h13.1v25.9h-13.1V333.8z M1695.9,333.8h9v25.9h-9V333.8z"/>
				<path id="Subtraction_5" class="st2" d="M1708.9,375.8c4.3,0.1,8.3,2.8,11.1,7.3c3.3,5.5,4.9,11.6,4.9,17.9l0,0v20.6h-16.2
					v-45.8H1708.9z M1704.1,377v44.5h-11.2v-20.6l0,0c0.1-5.1,1.2-10.2,3.4-15C1697.7,382.3,1700.5,379.2,1704.1,377L1704.1,377z
					 M1708.7,429.8h16.2v32.1h-16.2V429.8L1708.7,429.8z M1692.9,429.8h11.2v32.1h-11.2V429.8L1692.9,429.8z"/>
				<path id="Subtraction_6" class="st2" d="M1937,290.3c3.5,0.1,6.7,2.2,9,6c2.6,4.4,4,9.4,4,14.4l0,0v16.6h-13.2v-36.9L1937,290.3
					L1937,290.3z M1933,291.3L1933,291.3v35.9h-9v-16.6l0,0c0-4.2,1-8.3,2.7-12.1C1928,295.6,1930.2,293,1933,291.3L1933,291.3z
					 M1936.8,333.8h13.1v25.9h-13.1V333.8z M1924,333.8h9v25.9h-9V333.8z"/>
				<path id="Subtraction_7" class="st2" d="M1937.1,375.8c4.3,0.1,8.4,2.8,11.1,7.3c3.3,5.5,4.9,11.6,4.9,17.9l0,0v20.6h-16.2
					v-45.8H1937.1z M1932.3,377v44.5h-11.2v-20.6l0,0c0.1-5.1,1.2-10.2,3.4-15C1925.9,382.3,1928.7,379.2,1932.3,377L1932.3,377z
					 M1936.9,429.8h16.2v32.1h-16.2V429.8L1936.9,429.8z M1921.1,429.8h11.2v32.1h-11.2V429.8L1921.1,429.8z"/>
			</g>
			<rect id="Rectangle_230" x="1083" y="444.2" class="st2" width="43.4" height="85.8"/>
			<rect id="Rectangle_231" x="1104.7" y="545" class="st2" width="67.3" height="22.6"/>
			<rect id="Rectangle_232" x="1198.6" y="550.3" class="st2" width="6.5" height="35.3"/>
			<rect id="Rectangle_233" x="1231.6" y="561.5" class="st2" width="36.9" height="12"/>
			<rect id="Rectangle_234" x="1271.3" y="533" class="st2" width="13.1" height="35.3"/>
			<rect id="Rectangle_235" x="1213.2" y="353.9" class="st2" width="18.5" height="146.8"/>
			<rect id="Rectangle_236" x="1213.2" y="407.3" class="st2" width="28.2" height="20.3"/>
			<rect id="Rectangle_237" x="1218.6" y="417.1" class="st2" width="28.2" height="10.5"/>
			<rect id="Rectangle_238" x="1213.2" y="435.2" class="st2" width="28.2" height="4.6"/>
			<rect id="Rectangle_239" x="1180.1" y="417.9" class="st2" width="33" height="27.8"/>
			<rect id="Rectangle_240" x="1206.2" y="417.9" class="st2" width="7" height="72.3"/>
			<path id="Rectangle_241" class="st2" d="M1198,480.3L1198,480.3c2.1,0,3.8,2.3,3.8,5.3v9.8c0,2.9-1.7,5.3-3.8,5.3l0,0
				c-2.1,0-3.8-2.3-3.8-5.3v-9.8C1194.2,482.7,1195.9,480.3,1198,480.3z"/>
			<path id="Rectangle_242" class="st2" d="M1088.5,550.3L1088.5,550.3c3,0,5.4,3.3,5.4,7.5v7.5c0,4.2-2.4,7.5-5.4,7.5l0,0
				c-3,0-5.4-3.3-5.4-7.5v-7.5C1083,553.6,1085.4,550.3,1088.5,550.3z"/>
			<rect id="Rectangle_243" x="1169.7" y="435.2" class="st2" width="22.7" height="51.9"/>
			<rect id="Rectangle_244" x="1164.3" y="435.2" class="st2" width="22.7" height="4.6"/>
			<rect id="Rectangle_246" x="1181.8" y="478.8" class="st2" width="9.8" height="25.6"/>
			<rect id="Rectangle_247" x="1150.3" y="509.6" class="st2" width="41.2" height="13.6"/>
			<rect id="Rectangle_249" x="1156.2" y="530" class="st2" width="35.3" height="12.1"/>
			<rect id="Rectangle_250" x="1159" y="478.8" class="st2" width="17.4" height="32.4"/>
			<path id="Rectangle_252" class="st2" d="M1159.8,437.4L1159.8,437.4c1.4,0,2.5,1.5,2.5,3.3v6.8c0,1.9-1.1,3.3-2.5,3.3l0,0
				c-1.4,0-2.5-1.5-2.5-3.3v-6.8C1157.3,439,1158.4,437.4,1159.8,437.4z"/>
			<rect id="Rectangle_253" x="1249.5" y="426.9" class="st2" width="34.7" height="82.8"/>
			<rect id="Rectangle_254" x="1243.1" y="499.1" class="st2" width="28.2" height="27.1"/>
			<rect id="Rectangle_255" x="1281" y="320.8" class="st2" width="4.8" height="188.9"/>
			<rect id="Rectangle_256" x="1325.5" y="500.6" class="st2" width="48.9" height="9"/>
			<rect id="Rectangle_257" x="1344" y="463.7" class="st2" width="48.9" height="47.4"/>
			<rect id="Rectangle_258" x="1363.4" y="238.7" class="st2" width="39.6" height="272.4"/>
			<rect id="Rectangle_259" x="1389" y="250.8" class="st2" width="14.1" height="272.4"/>
			<path id="Path_68" class="st2" d="M1564,169.8l9,53.2l-30.3-0.1L1564,169.8z"/>
			<path id="Path_152" class="st2" d="M1370,222.9l20-45.7l10.4,45.7v39.2H1370V222.9z"/>
			<rect id="Rectangle_261" x="1314.6" y="537.5" class="st2" width="19" height="13.6"/>
			<rect id="Rectangle_262" x="1333.6" y="545.7" class="st2" width="96.5" height="5.3"/>
			<rect id="Rectangle_263" x="1426.9" y="511.1" class="st2" width="26" height="23.3"/>
			<rect id="Rectangle_264" x="1458.4" y="511.1" class="st2" width="4.4" height="23.3"/>
			<rect id="Rectangle_265" x="1320.6" y="320.8" class="st2" width="9.8" height="188.9"/>
			<rect id="Rectangle_266" x="1281" y="320.8" class="st2" width="49.4" height="5.3"/>
			<rect id="Rectangle_267" x="1281" y="331.4" class="st2" width="49.4" height="5.3"/>
			<rect id="Rectangle_268" x="1281" y="341.9" class="st2" width="49.4" height="5.3"/>
			<rect id="Rectangle_269" x="1281" y="352.4" class="st2" width="49.4" height="5.3"/>
			<rect id="Rectangle_270" x="1281" y="362.9" class="st2" width="49.4" height="5.3"/>
			<rect id="Rectangle_271" x="1281" y="373.5" class="st2" width="49.4" height="5.3"/>
			<rect id="Rectangle_272" x="1281" y="384" class="st2" width="49.4" height="5.3"/>
			<rect id="Rectangle_273" x="1281" y="394.5" class="st2" width="49.4" height="5.3"/>
			<rect id="Rectangle_274" x="1281" y="405" class="st2" width="49.4" height="5.3"/>
			<rect id="Rectangle_275" x="1281" y="415.6" class="st2" width="49.4" height="5.3"/>
			<rect id="Rectangle_276" x="1281" y="426.1" class="st2" width="49.4" height="5.3"/>
			<rect id="Rectangle_277" x="1281" y="436.6" class="st2" width="49.4" height="5.3"/>
			<rect id="Rectangle_278" x="1281" y="447.2" class="st2" width="49.4" height="5.3"/>
			<rect id="Rectangle_279" x="1281" y="457.8" class="st2" width="49.4" height="5.3"/>
			<rect id="Rectangle_280" x="1281" y="468.3" class="st2" width="49.4" height="5.3"/>
			<rect id="Rectangle_281" x="1281" y="478.8" class="st2" width="49.4" height="5.3"/>
			<rect id="Rectangle_282" x="1281" y="489.4" class="st2" width="49.4" height="5.3"/>
			<rect id="Rectangle_283" x="1281" y="499.9" class="st2" width="49.4" height="5.3"/>
			<path id="Path_70" class="st2" d="M1410.2,203.8l5.5,2.8l5.4,23.3l-5.2-1.9L1410.2,203.8z"/>
			<path id="Path_71" class="st2" d="M1420,208.2l5.5,2.8l5.4,23.3l-5.1-1.8L1420,208.2z"/>
			<path id="Path_72" class="st2" d="M1430.2,212.9l5.6,2.7l5.4,23.2l-5.3-1.6L1430.2,212.9z"/>
			<path id="Path_73" class="st2" d="M1440.5,218.1l5.6,2.7l5.3,23l-5.3-1.3L1440.5,218.1z"/>
			<path id="Path_74" class="st2" d="M1406,223.3l5.4,2.7l0.1,27.3l-5.4-2.7L1406,223.3z"/>
			<path id="Path_75" class="st2" d="M1415.9,226.9l5.2,2.8l0.4,27.4l-5.2-2.8L1415.9,226.9z"/>
			<path id="Path_76" class="st2" d="M1425.7,231.5l5.3,2.8l0.4,27.6l-5.3-2.8L1425.7,231.5z"/>
			<path id="Path_77" class="st2" d="M1435.7,236l5.4,2.6l0.1,27.2l-5.4-2.6L1435.7,236z"/>
			<path id="Path_78" class="st2" d="M1446.2,241.2l5.2,2.4l-0.1,25.6l-5.2-2.4L1446.2,241.2z"/>
			<rect id="Rectangle_284" x="1458.4" y="551" class="st2" width="23.8" height="23.3"/>
			<rect id="Rectangle_285" x="1497.5" y="533" class="st2" width="23.8" height="11.3"/>
			<rect id="Rectangle_286" x="1467.6" y="373.7" class="st2" width="47.2" height="15.6"/>
			<rect id="Rectangle_287" x="1467.6" y="376.5" class="st2" width="10.9" height="128.7"/>
			<rect id="Rectangle_288" x="1467.6" y="463.7" class="st2" width="35.8" height="41.4"/>
			<rect id="Rectangle_289" x="1503.4" y="373.5" class="st2" width="11.4" height="97.8"/>
			<path id="Rectangle_290" class="st2" d="M1526.1,438.1L1526.1,438.1c2.7,0,4.8,3.1,4.8,6.8V457c0,3.7-2.2,6.8-4.8,6.8l0,0
				c-2.7,0-4.8-3.1-4.8-6.8v-12C1521.3,441.2,1523.5,438.1,1526.1,438.1z"/>
			<rect id="Rectangle_291" x="1537.5" y="473.6" class="st2" width="5.4" height="72.3"/>
			<rect id="Rectangle_292" x="1550.6" y="466.8" class="st2" width="17.4" height="72.3"/>
			<rect id="Rectangle_293" x="1550.6" y="529.2" class="st2" width="87.8" height="9.8"/>
			<rect id="Rectangle_294" x="1599.3" y="502.9" class="st2" width="5.9" height="36.1"/>
			<rect id="Rectangle_296" x="1561.5" y="438.1" class="st2" width="14.1" height="46.7"/>
			<path id="Path_79" class="st2" d="M1541.4,210.9l27.3-100.8h6.9v361.2h-34.2L1541.4,210.9L1541.4,210.9z"/>
			<path id="Path_80" class="st2" d="M1602.6,177.4l17.4,56.8v250.6h-17.4V177.4z"/>
			<path id="Path_82" class="st2" d="M1589.1,120l4.3,1.2l34.5,111.3h-4.2L1589.1,120z"/>
			<path id="Path_83" class="st2" d="M1595.6,122.3l4.9,1.3l33.4,108.9h-4.2L1595.6,122.3z"/>
			<path id="Path_84" class="st2" d="M1602.9,125l4.3,1.5l32.6,106h-4.2L1602.9,125z"/>
			<path id="Path_85" class="st2" d="M1609.3,128l4.6,1.2l31.8,103.3h-4.2L1609.3,128z"/>
			<path id="Rectangle_297" class="st2" d="M1662,435.2L1662,435.2c1.7,0,3,1.9,3,4.2v18c0,2.3-1.3,4.2-3,4.2l0,0
				c-1.7,0-3-1.9-3-4.2v-18C1659.1,437,1660.4,435.2,1662,435.2z"/>
			<rect id="Rectangle_300" x="1673.1" y="509.6" class="st2" width="77.4" height="10.5"/>
			<path id="Rectangle_301" class="st2" d="M1843.5,477.5h14.1c3.9,0,7,4.4,7,9.8l0,0c0,5.4-3.2,9.8-7,9.8h-14.1c-3.9,0-7-4.4-7-9.8
				l0,0C1836.4,481.8,1839.6,477.5,1843.5,477.5z"/>
			<path id="Rectangle_303" class="st2" d="M1666.4,526.2h3.8c2.6,0,4.6,2.9,4.6,6.4l0,0c0,3.5-2.1,6.4-4.6,6.4h-3.8
				c-2.6,0-4.6-2.9-4.6-6.4l0,0C1661.7,529.1,1663.8,526.2,1666.4,526.2z"/>
			<path id="Rectangle_304" class="st2" d="M1645.7,553.3h3.8c2.6,0,4.6,2.9,4.6,6.4l0,0c0,3.5-2.1,6.4-4.6,6.4h-3.8
				c-2.6,0-4.6-2.9-4.6-6.4l0,0C1641.2,556.2,1643.2,553.3,1645.7,553.3z"/>
			<path id="Rectangle_305" class="st2" d="M1682.6,560.1h27.7c2.6,0,4.6,2.9,4.6,6.4l0,0c0,3.5-2.1,6.4-4.6,6.4h-27.7
				c-2.6,0-4.6-2.9-4.6-6.4l0,0C1678.1,562.9,1680,560.1,1682.6,560.1z"/>
			<rect id="Rectangle_306" x="1719.9" y="547.1" class="st2" width="69.9" height="10.5"/>
			<rect id="Rectangle_309" x="1645.2" y="343.4" class="st2" width="23.3" height="85"/>
			<path id="Rectangle_311" class="st2" d="M1712.8,490h7c2.6,0,4.6,2.9,4.6,6.4l0,0c0,3.5-2.1,6.4-4.6,6.4h-7
				c-2.6,0-4.6-2.9-4.6-6.4l0,0C1708.2,492.9,1710.3,490,1712.8,490z"/>
			<path id="Rectangle_312" class="st2" d="M1737.8,479.1h3.3c3.8,0,6.7,4.2,6.7,9.4l0,0c0,5.2-3.1,9.4-6.7,9.4h-3.3
				c-3.8,0-6.7-4.2-6.7-9.4l0,0C1731,483.2,1734,479.1,1737.8,479.1z"/>
			<rect id="Rectangle_313" x="1807.6" y="526.8" class="st2" width="50.4" height="26.6"/>
			<rect id="Rectangle_314" x="1875" y="498.1" class="st2" width="48.7" height="21"/>
			<path id="Rectangle_316" class="st2" d="M1899.3,422.2L1899.3,422.2c2.9,0,5.2,3.3,5.2,7.3v24.7c0,4-2.4,7.3-5.2,7.3l0,0
				c-2.9,0-5.2-3.3-5.2-7.3v-24.7C1894.1,425.5,1896.4,422.2,1899.3,422.2z"/>
			<rect id="Rectangle_534" x="1932.6" y="557.8" class="st2" width="29.3" height="17.3"/>
			<rect id="Rectangle_535" x="1907.7" y="539" class="st2" width="7.6" height="40.6"/>
			<rect id="Rectangle_537" x="1826" y="544.4" class="st2" width="64" height="18"/>
			<rect id="Rectangle_538" x="1886" y="468.4" class="st2" width="7.4" height="40.6"/>
			<rect id="Rectangle_539" x="1752.2" y="405.5" class="st2" width="5.1" height="52.4"/>
			<rect id="Rectangle_540" x="1743.1" y="392.8" class="st2" width="4.2" height="52.4"/>
		</g>
	</g>
	<rect x="323.9" y="525" class="st3" width="98.5" height="15.6"/>
	<rect x="335" y="514.4" class="st3" width="76.6" height="15.6"/>
	<polygon class="st3" points="382.5,331.6 392.5,331 406.3,521.5 396.2,522.1 	"/>
	<polygon class="st3" points="340.9,521.4 354.6,330.9 364.7,331.6 351,522.1 	"/>
	<rect x="783.6" y="525" class="st3" width="98.4" height="15.6"/>
	<rect x="794.5" y="514.4" class="st3" width="76.6" height="15.6"/>
	<polygon class="st3" points="797.7,520.2 813.2,423.1 823.1,424.6 807.7,521.6 	"/>
	<polygon class="st3" points="842.2,424.5 852.1,423.1 867.6,520.1 857.6,521.5 	"/>
	<path class="st3" d="M794.5,407.3v19.5h28c0.6-2.5,4.8-4.5,10-4.5s9.5,2,10,4.5H871v-19.5H794.5z"/>
	<rect x="641.4" y="525" class="st3" width="98.4" height="15.6"/>
	<rect x="652.4" y="514.4" class="st3" width="76.6" height="15.6"/>
	<polygon class="st3" points="655.6,520.2 671,423.1 681,424.6 665.5,521.6 	"/>
	<polygon class="st3" points="700,424.5 710,423.1 725.5,520.1 715.5,521.5 	"/>
	<path class="st3" d="M652.4,407.3v19.5h28c0.6-2.5,4.8-4.5,10-4.5s9.5,2,10,4.5h28.5v-19.5H652.4z"/>
	<rect x="486.3" y="525" class="st3" width="98.4" height="15.6"/>
	<rect x="497.4" y="514.4" class="st3" width="76.6" height="15.6"/>
	<polygon class="st3" points="500.5,520.2 520.1,397.6 530,399 510.5,521.6 	"/>
	<polygon class="st3" points="541.3,400.9 551.3,399.5 570.5,520.2 560.5,521.6 	"/>
	<rect x="153.2" y="525" class="st3" width="98.5" height="15.6"/>
	<rect x="164.2" y="514.4" class="st3" width="76.6" height="15.6"/>
	<polygon class="st3" points="209,294.6 219.1,294 235.5,521.4 225.4,522.1 	"/>
	<polygon class="st3" points="170.2,521.4 188.1,274.2 198.1,274.9 180.3,522.1 	"/>
	<path class="st3" d="M-24.6,178c0,0,427.6,248.7,1127.6,216.2l-15.7,81.7c0,0-856.6-47.4-1102.1-250.7
		c-18.7-15.5,25.3-20.7,13.5-38.2L-24.6,178z"/>
	<g id="Group_80-2">
		<g id="Group_74-2">
			<g id="Group_72-2">
				<rect id="Rectangle_189-2" x="977.6" y="463.2" class="st1" width="9.8" height="67.9"/>
				<rect id="Rectangle_190-2" x="999.8" y="463.2" class="st1" width="13.1" height="67.9"/>
				<rect id="Rectangle_191" x="1020" y="441.7" class="st1" width="15.6" height="67.9"/>
				<path id="Path_151" class="st1" d="M1071.5,347.4h129.8v188.2h-129.8V347.4z"/>
				<rect id="Rectangle_193" x="1212.3" y="279.5" class="st1" width="63.2" height="299.8"/>
				<rect id="Rectangle_194" x="1224.1" y="304.3" class="st1" width="63.2" height="299.8"/>
				<path id="Path_59" class="st1" d="M1229.9,261.2l12.4-18.4h14.2l19.2,27v16.6l-45.8,35.2L1229.9,261.2L1229.9,261.2z"/>
				<rect id="Rectangle_195" x="1287.3" y="459.9" class="st1" width="63.2" height="114.5"/>
				<rect id="Rectangle_196" x="1298.5" y="444.2" class="st1" width="7.8" height="77.8"/>
				<rect id="Rectangle_197" x="1311.4" y="366.3" class="st1" width="125.8" height="186.3"/>
				<rect id="Rectangle_198" x="1350.6" y="298.4" class="st1" width="47.6" height="184.6"/>
				<path id="Path_60" class="st1" d="M1326.4,337.8c10.8-8.3,28.3-7.3,28.5,4.2s-4,18.9-14.4,27.3c-10.5,8.4-28.8,6.4-28.9-2.7
					C1311.6,355.3,1317.1,344.8,1326.4,337.8z"/>
				<path id="Path_62" class="st1" d="M1367.6,267.4c11.9-9.1,30.7-8.9,30.6,2.8s-4.8,19.7-16.4,28.9s-31.3,8.1-31-1.3
					C1351.1,288.4,1355.7,276.5,1367.6,267.4z"/>
				<rect id="Rectangle_199" x="1370.2" y="267.8" class="st1" width="28" height="184.6"/>
				<path id="Path_64" class="st1" d="M1326.4,356c10.8-8.3,28.3-7.3,28.5,4.2s-4,18.9-14.4,27.3c-10.5,8.4-28.8,6.4-28.9-2.7
					C1311.6,373.5,1317.1,363,1326.4,356z"/>
				<path id="Path_65" class="st1" d="M1409.1,332c10.8-8.3,28.3-7.3,28.5,4.2c0.2,11.4-4,18.9-14.4,27.3
					c-10.5,8.4-28.8,6.4-28.9-2.7C1394.4,349.5,1399.8,338.9,1409.1,332z"/>
				<rect id="Rectangle_200" x="1410.5" y="344" class="st1" width="26.7" height="208.7"/>
				<rect id="Rectangle_201" x="1410.5" y="459.9" class="st1" width="72.4" height="92.7"/>
				<rect id="Rectangle_202" x="1449.7" y="207.4" class="st1" width="95.8" height="337.8"/>
				<path id="Path_66" class="st1" d="M1496.8,150.2l40.8,37.3l8.4,19.9h-96.4l10.5-25.3L1496.8,150.2z"/>
				<rect id="Rectangle_203" x="1552.8" y="308.4" class="st1" width="78.9" height="245.9"/>
				<rect id="Rectangle_204" x="1537.7" y="518.8" class="st1" width="25.4" height="35.6"/>
				<rect id="Rectangle_205" x="1631.6" y="488.9" class="st1" width="394.4" height="57.1"/>
				<rect id="Rectangle_206" x="1638.1" y="236.4" class="st1" width="65.9" height="309.6"/>
				<rect id="Rectangle_207" x="1773.7" y="262.8" class="st1" width="44.3" height="231"/>
				<rect id="Rectangle_208" x="1782.9" y="238.8" class="st1" width="27.4" height="231"/>
				<rect id="Rectangle_209" x="1767.9" y="262.8" class="st1" width="56.7" height="20.7"/>
				<rect id="Rectangle_210" x="1701.4" y="464.1" class="st1" width="75.7" height="29.8"/>
				<rect id="Rectangle_211" x="1733.9" y="449.2" class="st1" width="28.7" height="29.8"/>
				<rect id="Rectangle_212" x="1835" y="474" class="st1" width="28.7" height="29.8"/>
				<rect id="Rectangle_213" x="1843.5" y="459.9" class="st1" width="11.8" height="38.1"/>
				<rect id="Rectangle_214" x="1860.4" y="238.8" class="st1" width="35.9" height="259.2"/>
				<rect id="Rectangle_215" x="1863.7" y="224.8" class="st1" width="32.6" height="259.2"/>
				<rect id="Rectangle_216" x="1867" y="214.8" class="st1" width="26.1" height="259.1"/>
				<rect id="Rectangle_217" x="1867" y="254.6" class="st1" width="60" height="253.3"/>
				<rect id="Rectangle_218" x="1857.2" y="238.8" class="st1" width="48.3" height="19.1"/>
				<rect id="Rectangle_219" x="1559.9" y="300.1" class="st1" width="63.2" height="245.9"/>
				<path id="Path_67" class="st1" d="M1896.4,224.5l30.8,30.2h-30.8V224.5z"/>
				<rect id="Rectangle_164-2" x="1563" y="526.9" class="st1" width="438.1" height="58.2"/>
				<rect id="Rectangle_164-3" x="1742.7" y="591.4" class="st1" width="87.4" height="23.4"/>
				<rect id="Rectangle_164-4" x="1887.3" y="534.1" class="st1" width="49.8" height="71.2"/>
				<rect id="Rectangle_164-5" x="1463" y="528.2" class="st1" width="122" height="65.4"/>
				<rect id="Rectangle_164-6" x="1359.5" y="574.8" class="st1" width="127" height="29"/>
				<rect id="Rectangle_164-7" x="977.2" y="500.4" class="st1" width="255.1" height="96.4"/>
				<rect id="Rectangle_164-8" x="1328.9" y="562.4" class="st1" width="58.4" height="11.9"/>
				<rect id="Rectangle_164-9" x="1154.3" y="595" class="st1" width="58.4" height="11.9"/>
				<rect id="Rectangle_164-10" x="1118.3" y="578.6" class="st1" width="19" height="21.4"/>
			</g>
		</g>
		<g id="Group_75-2">
			<path id="Path_92" class="st2" d="M1527.7,181.3L1527.7,181.3l-4.6,26.5h-16.3L1527.7,181.3z"/>
			<path id="Path_93" class="st2" d="M1481.3,181.3l-2.3,2.9l27.9,23.6h16.1l-39.9-31.8L1481.3,181.3z"/>
			<path id="Path_95" class="st2" d="M1527.7,181.3L1527.7,181.3l-22.2,7.7l-8.4-37.8L1527.7,181.3z"/>
			<path id="Rectangle_318" class="st2" d="M1096.1,566.4h13.6c2.2,0,4,2.2,4,4.9l0,0c0,2.8-1.8,4.9-4,4.9h-13.6c-2.2,0-4-2.2-4-4.9
				l0,0C1092.2,568.6,1093.9,566.4,1096.1,566.4z"/>
			<rect id="Rectangle_319" x="1070.2" y="361.9" class="st2" width="86" height="194.6"/>
			<rect id="Rectangle_320" x="1070.2" y="341.1" class="st2" width="86" height="10.8"/>
			<rect id="Rectangle_323" x="1176.3" y="552.3" class="st2" width="35.2" height="19.1"/>
			<rect id="Rectangle_325" x="1141.1" y="580.4" class="st2" width="9.1" height="44.7"/>
			<path id="Rectangle_326" class="st2" d="M1200.1,493.5L1200.1,493.5c3.5,0,6.2,3.5,6.2,7.9v24.8c0,4.4-2.8,7.9-6.2,7.9l0,0
				c-3.5,0-6.2-3.5-6.2-7.9v-24.8C1193.9,497,1196.7,493.5,1200.1,493.5z"/>
			<rect id="Rectangle_327" x="1224.6" y="273.2" class="st2" width="7.8" height="293.1"/>
			<rect id="Rectangle_328" x="1210.8" y="273.2" class="st2" width="4.5" height="298.1"/>
			<rect id="Rectangle_329" x="1210.8" y="561.5" class="st2" width="49.6" height="10"/>
			<rect id="Rectangle_330" x="1210.8" y="273.2" class="st2" width="24.8" height="28.2"/>
			<path id="Path_86" class="st2" d="M1260.7,244.9l12.8,17.7v303.8h-13.1L1260.7,244.9z"/>
			<path id="Path_87" class="st2" d="M1227.2,255.1l12.1-16.7h4.8v44.9h-16.9V255.1z"/>
			<rect id="Rectangle_331" x="1278" y="295.6" class="st2" width="7.8" height="270.7"/>
			<path id="Rectangle_332" class="st2" d="M1296.3,534.1L1296.3,534.1c3.3,0,5.8,3.3,5.8,7.4v13.2c0,4.1-2.7,7.4-5.8,7.4l0,0
				c-3.3,0-5.8-3.3-5.8-7.4v-13.2C1290.5,537.5,1293,534.1,1296.3,534.1z"/>
			<path id="Rectangle_333" class="st2" d="M1299.3,571.3L1299.3,571.3c1.6,0,3,1.7,3,3.7v9.1c0,2-1.3,3.7-3,3.7l0,0
				c-1.6,0-3-1.7-3-3.7V575C1296.3,573,1297.6,571.3,1299.3,571.3z"/>
			<path id="Path_88" class="st2" d="M1324.9,331.6c10.8-8.3,28.3-7.3,28.5,4.2c0.2,11.4-4,18.9-14.4,27.3
				c-10.5,8.4-28.8,6.4-28.9-2.7C1310.1,349.1,1315.6,338.5,1324.9,331.6z"/>
			<path id="Path_89" class="st2" d="M1366.1,261.2c11.9-9.1,30.7-9,30.6,2.8c-0.1,11.8-4.8,19.7-16.4,28.9s-31.3,8.1-31-1.3
				S1354.2,270.3,1366.1,261.2z"/>
			<path id="Path_90" class="st2" d="M1407.7,325.8c10.8-8.3,28.3-7.3,28.5,4.2s-4,18.9-14.4,27.3c-10.5,8.4-28.8,6.4-28.9-2.7
				C1392.9,343.4,1398.4,332.8,1407.7,325.8z"/>
			<rect id="Rectangle_335" x="1312.6" y="361.9" class="st2" width="16.3" height="57.1"/>
			<rect id="Rectangle_336" x="1349.1" y="290.6" class="st2" width="20.2" height="44.7"/>
			<rect id="Rectangle_337" x="1353.7" y="290.6" class="st2" width="15.6" height="66.2"/>
			<rect id="Rectangle_338" x="1392.8" y="352.8" class="st2" width="12.4" height="66.2"/>
			<path id="Path_91" class="st2" d="M1363.9,401.1c10.8-8.3,28.3-7.3,28.5,4.2s-4,18.9-14.4,27.3c-10.5,8.4-28.8,6.4-28.9-2.7
				C1349.2,418.7,1354.6,408.1,1363.9,401.1z"/>
			<rect id="Rectangle_339" x="1349.1" y="431.4" class="st2" width="20.2" height="57.9"/>
			<rect id="Rectangle_340" x="1392.8" y="352.8" class="st2" width="5.8" height="136.6"/>
			<rect id="Rectangle_341" x="1312.6" y="419" class="st2" width="36.5" height="8.3"/>
			<rect id="Rectangle_342" x="1312.6" y="437.2" class="st2" width="36.5" height="5.8"/>
			<rect id="Rectangle_343" x="1319.1" y="450.4" class="st2" width="30" height="5.8"/>
			<rect id="Rectangle_344" x="1309.3" y="463.7" class="st2" width="39.8" height="5.8"/>
			<rect id="Rectangle_345" x="1309.3" y="476.9" class="st2" width="39.8" height="5.8"/>
			<rect id="Rectangle_346" x="1309.3" y="490.2" class="st2" width="39.8" height="5.8"/>
			<rect id="Rectangle_347" x="1309.3" y="503.4" class="st2" width="39.8" height="5.8"/>
			<rect id="Rectangle_348" x="1309.3" y="516.7" class="st2" width="39.8" height="5.8"/>
			<rect id="Rectangle_349" x="1309.3" y="529.9" class="st2" width="39.8" height="5.8"/>
			<rect id="Rectangle_350" x="1349.1" y="496" class="st2" width="51.5" height="7.4"/>
			<rect id="Rectangle_351" x="1349.1" y="509.3" class="st2" width="51.5" height="7.4"/>
			<rect id="Rectangle_352" x="1349.1" y="522.5" class="st2" width="51.5" height="7.4"/>
			<rect id="Rectangle_353" x="1349.1" y="535.8" class="st2" width="51.5" height="7.4"/>
			<rect id="Rectangle_354" x="1398.7" y="423.2" class="st2" width="35.2" height="4.2"/>
			<rect id="Rectangle_355" x="1398.7" y="434.7" class="st2" width="35.2" height="5.8"/>
			<rect id="Rectangle_356" x="1398.7" y="450.4" class="st2" width="35.2" height="5.8"/>
			<rect id="Rectangle_357" x="1398.7" y="463.7" class="st2" width="35.2" height="5.8"/>
			<rect id="Rectangle_358" x="1398.7" y="476.9" class="st2" width="35.2" height="5.8"/>
			<rect id="Rectangle_359" x="1398.7" y="490.2" class="st2" width="35.2" height="5.8"/>
			<rect id="Rectangle_360" x="1398.7" y="503.4" class="st2" width="35.2" height="5.8"/>
			<rect id="Rectangle_361" x="1398.7" y="516.7" class="st2" width="35.2" height="5.8"/>
			<rect id="Rectangle_362" x="1353.7" y="356.1" class="st2" width="35.6" height="5.8"/>
			<rect id="Rectangle_363" x="1353.7" y="369.3" class="st2" width="35.6" height="5.8"/>
			<rect id="Rectangle_364" x="1353.7" y="382.5" class="st2" width="35.6" height="5.8"/>
			<rect id="Rectangle_365" x="1353.7" y="395.8" class="st2" width="35.6" height="5.8"/>
			<rect id="Rectangle_366" x="1330.2" y="560.6" class="st2" width="117.4" height="15.7"/>
			<rect id="Rectangle_367" x="1506.9" y="207.9" class="st2" width="16.3" height="318.8"/>
			<rect id="Rectangle_368" x="1449.5" y="207.9" class="st2" width="4" height="318.8"/>
			<path id="Path_94" class="st2" d="M1481.3,181.3L1481.3,181.3l-28,35.2l-3.9-8.7v-7.7l10.1-24.8l35.6-31.2L1481.3,181.3z"/>
			<path id="Rectangle_369" class="st2" d="M1522.9,544L1522.9,544c3.1,0,5.5,3.2,5.5,7.1v18.2c0,3.9-2.5,7.1-5.5,7.1l0,0
				c-3.1,0-5.5-3.2-5.5-7.1v-18.2C1517.3,547.1,1519.8,544,1522.9,544z"/>
			<rect id="Rectangle_370" x="1534.9" y="563.9" class="st2" width="43" height="7.4"/>
			<rect id="Rectangle_370-2" x="1419.2" y="596.5" class="st2" width="43" height="7.4"/>
			<rect id="Rectangle_370-3" x="1616.7" y="597.5" class="st2" width="43" height="7.4"/>
			<rect id="Rectangle_370-4" x="1378.1" y="582.4" class="st2" width="12.2" height="13.4"/>
			<rect id="Rectangle_370-5" x="1584.4" y="594.2" class="st2" width="12.2" height="13.4"/>
			<rect id="Rectangle_371" x="1573.4" y="544.8" class="st2" width="26.7" height="34.8"/>
			<rect id="Rectangle_372" x="1557.1" y="294" class="st2" width="64.6" height="16.6"/>
			<rect id="Rectangle_373" x="1554.4" y="302.2" class="st2" width="75" height="17.4"/>
			<rect id="Rectangle_374" x="1557.1" y="324.6" class="st2" width="69.7" height="6.6"/>
			<rect id="Rectangle_375" x="1557.1" y="337" class="st2" width="69.7" height="6.6"/>
			<rect id="Rectangle_376" x="1557.1" y="349.4" class="st2" width="69.7" height="6.6"/>
			<rect id="Rectangle_377" x="1557.1" y="361.9" class="st2" width="69.7" height="6.6"/>
			<rect id="Rectangle_378" x="1557.1" y="374.2" class="st2" width="69.7" height="6.6"/>
			<rect id="Rectangle_379" x="1557.1" y="386.7" class="st2" width="69.7" height="6.6"/>
			<rect id="Rectangle_380" x="1557.1" y="399.1" class="st2" width="69.7" height="6.6"/>
			<rect id="Rectangle_381" x="1557.1" y="411.5" class="st2" width="69.7" height="6.6"/>
			<rect id="Rectangle_382" x="1557.1" y="424" class="st2" width="69.7" height="6.6"/>
			<rect id="Rectangle_383" x="1557.1" y="436.4" class="st2" width="69.7" height="6.6"/>
			<rect id="Rectangle_384" x="1557.1" y="448.8" class="st2" width="69.7" height="6.6"/>
			<rect id="Rectangle_385" x="1557.1" y="461.2" class="st2" width="69.7" height="6.6"/>
			<rect id="Rectangle_386" x="1557.1" y="473.7" class="st2" width="69.7" height="6.6"/>
			<rect id="Rectangle_387" x="1557.1" y="486" class="st2" width="69.7" height="6.6"/>
			<rect id="Rectangle_388" x="1557.1" y="498.5" class="st2" width="69.7" height="6.6"/>
			<rect id="Rectangle_389" x="1557.1" y="510" class="st2" width="69.7" height="6.6"/>
			<rect id="Rectangle_390" x="1636.6" y="239.8" class="st2" width="39.8" height="334.9"/>
			<rect id="Rectangle_391" x="1690.1" y="546.5" class="st2" width="50.8" height="15.7"/>
			<path id="Rectangle_392" class="st2" d="M1712.3,526.7h15.6c2.6,0,4.5,2.6,4.5,5.8l0,0c0,3.3-2.1,5.8-4.5,5.8h-15.6
				c-2.6,0-4.5-2.6-4.5-5.8l0,0C1707.7,529.2,1709.7,526.7,1712.3,526.7z"/>
			<path id="Rectangle_393" class="st2" d="M1705.1,504.3h3.3c2.6,0,4.5,2.6,4.5,5.8l0,0c0,3.2-2.1,5.8-4.5,5.8h-3.3
				c-2.6,0-4.5-2.6-4.5-5.8l0,0C1700.5,506.9,1702.6,504.3,1705.1,504.3z"/>
			<path id="Rectangle_394" class="st2" d="M1724.9,480.3L1724.9,480.3c2.7,0,4.8,2.8,4.8,6.2v3.3c0,3.4-2.2,6.2-4.8,6.2l0,0
				c-2.7,0-4.8-2.8-4.8-6.2v-3.3C1720.1,483.1,1722.3,480.3,1724.9,480.3z"/>
			<rect id="Rectangle_395" x="1756" y="562.2" class="st2" width="47.6" height="12.4"/>
			<path id="Rectangle_396" class="st2" d="M1721.4,579.6h11.1c2.2,0,3.9,2.2,3.9,4.9l0,0c0,2.8-1.8,4.9-3.9,4.9h-11.1
				c-2.2,0-4-2.2-4-4.9l0,0C1717.4,581.8,1719.2,579.6,1721.4,579.6z"/>
			<rect id="Rectangle_397" x="1742.9" y="452.1" class="st2" width="13.1" height="24.8"/>
			<rect id="Rectangle_398" x="1783.3" y="236.9" class="st2" width="22.2" height="12.4"/>
			<rect id="Rectangle_399" x="1782" y="270" class="st2" width="24.8" height="14"/>
			<rect id="Rectangle_400" x="1782" y="256.7" class="st2" width="5.2" height="25.7"/>
			<rect id="Rectangle_401" x="1801.6" y="256.7" class="st2" width="5.2" height="25.7"/>
			<rect id="Rectangle_402" x="1787.3" y="289" class="st2" width="14.3" height="5.8"/>
			<rect id="Rectangle_403" x="1787.3" y="299.7" class="st2" width="14.3" height="5.8"/>
			<rect id="Rectangle_404" x="1810.1" y="289" class="st2" width="6.5" height="5.8"/>
			<rect id="Rectangle_405" x="1810.1" y="299.7" class="st2" width="6.5" height="5.8"/>
			<rect id="Rectangle_406" x="1772.2" y="289" class="st2" width="6.5" height="5.8"/>
			<rect id="Rectangle_407" x="1772.2" y="299.7" class="st2" width="6.5" height="5.8"/>
			<rect id="Rectangle_408" x="1787.3" y="310.5" class="st2" width="14.3" height="5.8"/>
			<rect id="Rectangle_409" x="1787.3" y="321.3" class="st2" width="14.3" height="5.8"/>
			<rect id="Rectangle_410" x="1810.1" y="310.5" class="st2" width="6.5" height="5.8"/>
			<rect id="Rectangle_411" x="1810.1" y="321.3" class="st2" width="6.5" height="5.8"/>
			<rect id="Rectangle_412" x="1772.2" y="310.5" class="st2" width="6.5" height="5.8"/>
			<rect id="Rectangle_413" x="1772.2" y="321.3" class="st2" width="6.5" height="5.8"/>
			<rect id="Rectangle_414" x="1787.3" y="332" class="st2" width="14.3" height="5.8"/>
			<rect id="Rectangle_415" x="1787.3" y="342.8" class="st2" width="14.3" height="5.8"/>
			<rect id="Rectangle_416" x="1810.1" y="332" class="st2" width="6.5" height="5.8"/>
			<rect id="Rectangle_417" x="1810.1" y="342.8" class="st2" width="6.5" height="5.8"/>
			<rect id="Rectangle_418" x="1772.2" y="332" class="st2" width="6.5" height="5.8"/>
			<rect id="Rectangle_419" x="1772.2" y="342.8" class="st2" width="6.5" height="5.8"/>
			<rect id="Rectangle_420" x="1787.3" y="353.6" class="st2" width="14.3" height="5.8"/>
			<rect id="Rectangle_421" x="1787.3" y="364.4" class="st2" width="14.3" height="5.8"/>
			<rect id="Rectangle_422" x="1810.1" y="353.6" class="st2" width="6.5" height="5.8"/>
			<rect id="Rectangle_423" x="1810.1" y="364.4" class="st2" width="6.5" height="5.8"/>
			<rect id="Rectangle_424" x="1772.2" y="353.6" class="st2" width="6.5" height="5.8"/>
			<rect id="Rectangle_425" x="1772.2" y="364.4" class="st2" width="6.5" height="5.8"/>
			<rect id="Rectangle_426" x="1810.1" y="278.3" class="st2" width="6.5" height="5.8"/>
			<rect id="Rectangle_427" x="1772.2" y="278.3" class="st2" width="6.5" height="5.8"/>
			<rect id="Rectangle_428" x="1787.3" y="375.1" class="st2" width="14.3" height="5.8"/>
			<rect id="Rectangle_429" x="1810.1" y="375.1" class="st2" width="6.5" height="5.8"/>
			<rect id="Rectangle_430" x="1772.2" y="375.1" class="st2" width="6.5" height="5.8"/>
			<rect id="Rectangle_431" x="1787.3" y="385.9" class="st2" width="14.3" height="5.8"/>
			<rect id="Rectangle_432" x="1787.3" y="396.6" class="st2" width="14.3" height="5.8"/>
			<rect id="Rectangle_433" x="1810.1" y="385.9" class="st2" width="6.5" height="5.8"/>
			<rect id="Rectangle_434" x="1810.1" y="396.6" class="st2" width="6.5" height="5.8"/>
			<rect id="Rectangle_435" x="1772.2" y="385.9" class="st2" width="6.5" height="5.8"/>
			<rect id="Rectangle_436" x="1772.2" y="396.6" class="st2" width="6.5" height="5.8"/>
			<rect id="Rectangle_437" x="1787.3" y="407.4" class="st2" width="14.3" height="5.8"/>
			<rect id="Rectangle_438" x="1810.1" y="407.4" class="st2" width="6.5" height="5.8"/>
			<rect id="Rectangle_439" x="1772.2" y="407.4" class="st2" width="6.5" height="5.8"/>
			<rect id="Rectangle_440" x="1787.3" y="418.1" class="st2" width="14.3" height="5.8"/>
			<rect id="Rectangle_441" x="1787.3" y="428.9" class="st2" width="14.3" height="5.8"/>
			<rect id="Rectangle_442" x="1810.1" y="418.1" class="st2" width="6.5" height="5.8"/>
			<rect id="Rectangle_443" x="1810.1" y="428.9" class="st2" width="6.5" height="5.8"/>
			<rect id="Rectangle_444" x="1772.2" y="418.1" class="st2" width="6.5" height="5.8"/>
			<rect id="Rectangle_445" x="1772.2" y="428.9" class="st2" width="6.5" height="5.8"/>
			<rect id="Rectangle_446" x="1787.3" y="439.7" class="st2" width="14.3" height="5.8"/>
			<rect id="Rectangle_447" x="1810.1" y="439.7" class="st2" width="6.5" height="5.8"/>
			<rect id="Rectangle_448" x="1772.2" y="439.7" class="st2" width="6.5" height="5.8"/>
			<rect id="Rectangle_449" x="1787.3" y="450.4" class="st2" width="14.3" height="5.8"/>
			<rect id="Rectangle_450" x="1787.3" y="461.2" class="st2" width="14.3" height="5.8"/>
			<rect id="Rectangle_451" x="1810.1" y="450.4" class="st2" width="6.5" height="5.8"/>
			<rect id="Rectangle_452" x="1810.1" y="461.2" class="st2" width="6.5" height="5.8"/>
			<rect id="Rectangle_453" x="1772.2" y="450.4" class="st2" width="6.5" height="5.8"/>
			<rect id="Rectangle_454" x="1772.2" y="461.2" class="st2" width="6.5" height="5.8"/>
			<rect id="Rectangle_455" x="1787.3" y="472" class="st2" width="14.3" height="5.8"/>
			<rect id="Rectangle_456" x="1810.1" y="472" class="st2" width="6.5" height="5.8"/>
			<rect id="Rectangle_457" x="1772.2" y="472" class="st2" width="6.5" height="5.8"/>
			<rect id="Rectangle_458" x="1787.3" y="482.8" class="st2" width="14.3" height="5.8"/>
			<rect id="Rectangle_459" x="1787.3" y="493.5" class="st2" width="14.3" height="5.8"/>
			<rect id="Rectangle_460" x="1810.1" y="482.8" class="st2" width="6.5" height="5.8"/>
			<rect id="Rectangle_461" x="1810.1" y="493.5" class="st2" width="6.5" height="5.8"/>
			<rect id="Rectangle_462" x="1772.2" y="482.8" class="st2" width="6.5" height="5.8"/>
			<rect id="Rectangle_463" x="1772.2" y="493.5" class="st2" width="6.5" height="5.8"/>
			<rect id="Rectangle_464" x="1787.3" y="504.3" class="st2" width="14.3" height="5.8"/>
			<rect id="Rectangle_465" x="1810.1" y="504.3" class="st2" width="6.5" height="5.8"/>
			<rect id="Rectangle_466" x="1772.2" y="504.3" class="st2" width="6.5" height="5.8"/>
			<rect id="Rectangle_467" x="1787.3" y="515" class="st2" width="14.3" height="5.8"/>
			<rect id="Rectangle_468" x="1787.3" y="525.8" class="st2" width="14.3" height="5.8"/>
			<rect id="Rectangle_469" x="1810.1" y="515" class="st2" width="6.5" height="5.8"/>
			<rect id="Rectangle_470" x="1810.1" y="525.8" class="st2" width="6.5" height="5.8"/>
			<rect id="Rectangle_471" x="1772.2" y="515" class="st2" width="6.5" height="5.8"/>
			<rect id="Rectangle_472" x="1772.2" y="525.8" class="st2" width="6.5" height="5.8"/>
			<path id="Rectangle_473" class="st2" d="M1792.8,540.7h20.2c3.1,0,5.5,3.2,5.5,7.1l0,0c0,3.9-2.5,7.1-5.5,7.1h-20.2
				c-3.1,0-5.5-3.2-5.5-7.1l0,0C1787.3,543.9,1789.7,540.7,1792.8,540.7z"/>
			<path id="Rectangle_474" class="st2" d="M1831.3,485.2h12.4c2.4,0,4.3,2.4,4.3,5.4l0,0c0,3-1.9,5.4-4.3,5.4h-12.4
				c-2.4,0-4.3-2.4-4.3-5.4l0,0C1827,487.6,1828.9,485.2,1831.3,485.2z"/>
			<path id="Rectangle_475" class="st2" d="M1842.6,507.6L1842.6,507.6c2.9,0,5.2,3,5.2,6.6v4.9c0,3.6-2.4,6.6-5.2,6.6l0,0
				c-2.9,0-5.2-3-5.2-6.6v-4.9C1837.5,510.6,1839.8,507.6,1842.6,507.6z"/>
			<rect id="Rectangle_476" x="1824.4" y="549.8" class="st2" width="120" height="19.1"/>
			<rect id="Rectangle_477" x="1827" y="554.8" class="st2" width="10.5" height="29.9"/>
			<rect id="Rectangle_478" x="1857" y="554.8" class="st2" width="43.7" height="29.9"/>
			<rect id="Rectangle_479" x="1912.5" y="554.8" class="st2" width="13.1" height="23.2"/>
			<rect id="Rectangle_483" x="1860.2" y="254.3" class="st2" width="35.1" height="5.8"/>
			<rect id="Rectangle_484" x="1860.2" y="265" class="st2" width="35.1" height="5.8"/>
			<rect id="Rectangle_485" x="1860.2" y="275.7" class="st2" width="35.1" height="5.8"/>
			<rect id="Rectangle_486" x="1860.2" y="286.5" class="st2" width="35.1" height="5.8"/>
			<rect id="Rectangle_487" x="1860.2" y="297.2" class="st2" width="35.1" height="5.8"/>
			<rect id="Rectangle_488" x="1860.2" y="307.4" class="st2" width="35.1" height="5.8"/>
			<rect id="Rectangle_489" x="1860.2" y="318" class="st2" width="35.1" height="5.8"/>
			<rect id="Rectangle_490" x="1860.2" y="328.6" class="st2" width="35.1" height="5.8"/>
			<rect id="Rectangle_491" x="1860.2" y="339.3" class="st2" width="35.1" height="5.8"/>
			<rect id="Rectangle_492" x="1860.2" y="349.9" class="st2" width="35.1" height="5.8"/>
			<rect id="Rectangle_493" x="1860.2" y="360.5" class="st2" width="35.1" height="5.8"/>
			<rect id="Rectangle_494" x="1860.2" y="371.1" class="st2" width="35.1" height="5.8"/>
			<rect id="Rectangle_495" x="1860.2" y="381.8" class="st2" width="35.1" height="5.8"/>
			<rect id="Rectangle_496" x="1860.2" y="392.4" class="st2" width="35.1" height="5.8"/>
			<rect id="Rectangle_497" x="1860.2" y="403" class="st2" width="35.1" height="5.8"/>
			<rect id="Rectangle_498" x="1860.2" y="413.6" class="st2" width="35.1" height="5.8"/>
			<rect id="Rectangle_499" x="1860.2" y="424.3" class="st2" width="35.1" height="5.8"/>
			<rect id="Rectangle_500" x="1860.2" y="434.9" class="st2" width="35.1" height="5.8"/>
			<rect id="Rectangle_501" x="1860.2" y="445.5" class="st2" width="35.1" height="5.8"/>
			<rect id="Rectangle_502" x="1860.2" y="456.1" class="st2" width="35.1" height="5.8"/>
			<rect id="Rectangle_503" x="1860.2" y="466.2" class="st2" width="35.1" height="5.8"/>
			<rect id="Rectangle_504" x="1860.2" y="476.9" class="st2" width="35.1" height="5.8"/>
			<rect id="Rectangle_505" x="1860.2" y="487.7" class="st2" width="35.1" height="5.8"/>
			<rect id="Rectangle_506" x="1860.2" y="498.5" class="st2" width="35.1" height="5.8"/>
			<path id="Path_96" class="st2" d="M1904,256.7l-28.8-35.7l38.6,35.7v259.2h-9.8L1904,256.7L1904,256.7z"/>
			<rect id="Rectangle_508" x="1860.2" y="509.3" class="st2" width="35.1" height="5.8"/>
			<path id="Rectangle_509" class="st2" d="M1934.9,493.5L1934.9,493.5c1.3,0,2.3,1.3,2.3,2.9v7.4c0,1.6-1,2.9-2.3,2.9l0,0
				c-1.3,0-2.3-1.3-2.3-2.9v-7.4C1932.6,494.8,1933.6,493.5,1934.9,493.5z"/>
		</g>
	</g>
	<rect x="-34.4" y="524.6" class="st4" width="2662.6" height="261.3"/>
	<rect x="323.9" y="521.5" class="st3" width="98.5" height="15.6"/>
	<rect x="335" y="532.1" class="st3" width="76.6" height="15.6"/>
	<polygon class="st3" points="382.6,730.4 396.3,539.9 406.4,540.6 392.6,731.1 	"/>
	<polygon class="st3" points="341,540.6 351.1,540 364.8,730.5 354.8,731.1 	"/>
	<rect x="783.6" y="521.5" class="st3" width="98.4" height="15.6"/>
	<rect x="794.5" y="532.1" class="st3" width="76.6" height="15.6"/>
	<polygon class="st3" points="797.7,541.9 807.6,540.5 823.1,637.5 813.1,638.9 	"/>
	<polygon class="st3" points="842.1,637.6 857.5,540.5 867.5,541.9 852,639 	"/>
	<rect x="641.4" y="521.5" class="st3" width="98.4" height="15.6"/>
	<rect x="652.4" y="532.1" class="st3" width="76.6" height="15.6"/>
	<polygon class="st3" points="658.2,541.6 668.1,540.2 683.8,637.4 673.8,638.8 	"/>
	<polygon class="st3" points="700,637.6 715.5,540.6 725.5,542 710,639 	"/>
	<rect x="486.3" y="521.5" class="st3" width="98.4" height="15.6"/>
	<rect x="497.4" y="532.1" class="st3" width="76.6" height="15.6"/>
	<polygon class="st3" points="500.5,541.9 510.5,540.5 530,663.1 520,664.5 	"/>
	<polygon class="st3" points="541.2,661.1 560.4,540.5 570.4,541.9 551.2,662.5 	"/>
	<rect x="153.2" y="521.5" class="st3" width="98.5" height="15.6"/>
	<rect x="164.2" y="532.1" class="st3" width="76.6" height="15.6"/>
	<polygon class="st3" points="209.2,767.4 225.6,539.9 235.7,540.6 219.3,768 	"/>
	<polygon class="st3" points="170.3,540.6 180.4,539.9 198.2,787.1 188.2,787.8 	"/>
	<path class="st3" d="M66.3,878.2c0,0,336.8-242.8,1036.8-210.3l-15.7-81.7C1087.3,586.3,231.6,631.4,66.3,878.2z"/>
	<polygon class="st1" points="1320.9,505.4 1320.9,509.1 1380.9,509.1 1407.7,509.1 1407.7,509.1 1407.7,509.1 1433.4,509.1 
		1433.4,505.4 	"/>
	<rect x="947.9" y="563.6" class="st3" width="9.8" height="38.9"/>
	<rect x="970.1" y="563.6" class="st1" width="13.1" height="38.9"/>
	<rect x="990.4" y="563.6" class="st1" width="15.6" height="61.4"/>
	<path class="st1" d="M1164.2,563.7h-37.7v144.8h-84.9v10.4h84.9v4.7h44.9V570.7c-0.4,0.1-0.7,0.1-1.1,0.2
		C1167.3,570.9,1164.6,567.8,1164.2,563.7z"/>
	<polygon class="st1" points="1194.4,768.7 1194.4,563.6 1185.8,563.6 1185.8,771.6 1194.9,771.6 1194.9,768.7 	"/>
	<polygon class="st1" points="1257.6,505.4 1256.1,505.4 1256.1,768.7 1257.6,768.7 1257.6,606 1257.6,606 	"/>
	<polygon class="st1" points="1243.8,505.4 1243.8,768.7 1245.9,768.7 1248.3,768.7 1248.3,505.4 	"/>
	<polygon class="st1" points="1202.7,752.4 1222.9,768.7 1231,768.7 1230.8,505.4 1202.7,505.4 	"/>
	<rect x="1194.4" y="563.6" class="st1" width="0.5" height="205"/>
	<path class="st1" d="M1279.7,602.1v-6h2.2v-7.8h-2.2v-6h2.2v-7.8h-2.2v-6h2.2v-7.8h-2.2v-6h2.2v-7.8h-2.2v-6h2.2v-7.8h-2.2v-6h2.2
		v-17.7h39.2v-3.7h-48.6c0.1,0.5,0.1,1,0.1,1.5v13.9c0,4.3-2.7,7.8-5.8,7.8c-3.2,0-5.8-3.4-5.8-7.8v-13.8c0-0.5,0-1,0.1-1.5h-3.2
		v100.5h11.1v-64.9h7.8v64.9h5.2v-3.9h-2.3V602.1z"/>
	<polygon class="st1" points="1268.8,541.1 1268.8,606 1268.8,622.5 1276.6,622.5 1276.6,606 1276.6,541.1 	"/>
	<rect x="1371" y="560.5" class="st1" width="10" height="7.8"/>
	<rect x="1371" y="546.7" class="st1" width="10" height="7.8"/>
	<polygon class="st1" points="1369,568.3 1319.4,568.3 1319.4,574.4 1281.7,574.4 1281.7,582.2 1319.4,582.2 1319.4,575.2 
		1339.6,575.2 1339.6,581.8 1363.1,581.8 1363.1,575.2 1369,575.2 1369,582.2 1380.9,582.2 1380.9,574.4 1369,574.4 	"/>
	<polygon class="st1" points="1320.9,509.1 1281.7,509.1 1281.7,526.8 1319.4,526.8 1319.4,519 1371,519 1371,526.8 1319.4,526.8 
		1319.4,532.8 1371,532.8 1371,540.6 1380.9,540.6 1380.9,509.1 1380.9,509.1 	"/>
	<rect x="1369" y="588.2" class="st1" width="12" height="7.8"/>
	<rect x="1281.7" y="532.8" class="st1" width="37.7" height="7.8"/>
	<rect x="1281.7" y="546.7" class="st1" width="37.7" height="7.8"/>
	<rect x="1281.7" y="560.5" class="st1" width="37.7" height="7.8"/>
	<rect x="1319.4" y="540.6" class="st1" width="49.6" height="6"/>
	<rect x="1281.7" y="588.2" class="st1" width="37.7" height="7.8"/>
	<rect x="1319.4" y="554.5" class="st1" width="49.6" height="6"/>
	<path class="st1" d="M1339.6,581.8v48.3l0.8,0.3v-16.6h22.6v-32L1339.6,581.8L1339.6,581.8z"/>
	<polygon class="st1" points="1420,536.3 1420,516.9 1433.4,516.9 1433.4,509.1 1407.7,509.1 1380.9,509.1 1380.9,540.6 
		1404.2,540.6 1404.2,546.7 1380.9,546.7 1380.9,554.5 1404.2,554.5 1404.2,560.5 1380.9,560.5 1380.9,568.3 1404.2,568.3 
		1404.2,574.4 1380.9,574.4 1380.9,582.2 1404.2,582.2 1404.2,588.2 1380.9,588.2 1380.9,596.1 1404.2,596.1 1404.2,602.1 
		1380.9,602.1 1380.9,606 1407.7,606 1419.8,606 1419.8,536.3 	"/>
	<polygon class="st1" points="1508,534.7 1433.4,534.7 1433.4,516.9 1420,516.9 1420,536.3 1423.8,536.3 1423.8,860.3 1431,869.9 
		1476.7,869.9 1477.2,869.4 1477.1,869.4 1477.2,869.4 1477.2,536.3 1493.5,536.3 1493.5,869.4 1493.4,869.4 1493.5,869.9 
		1515.9,869.9 1515.9,544.6 1508,544.6 	"/>
	<polygon class="st1" points="1593.4,546.7 1597.2,546.7 1597.2,553.6 1593.4,553.6 1593.4,558.8 1597.2,558.8 1597.2,565.7 
		1593.4,565.7 1593.4,571.8 1597.2,571.8 1597.2,578.8 1593.4,578.8 1593.4,584.8 1597.2,584.8 1597.2,591.7 1593.4,591.7 
		1593.4,597.7 1597.2,597.7 1597.2,604.7 1593.4,604.7 1593.4,610.7 1597.2,610.7 1597.2,617.6 1593.4,617.6 1593.4,623.7 
		1597.2,623.7 1597.2,630.6 1593.4,630.6 1593.4,636.7 1597.2,636.7 1597.2,643.6 1593.4,643.6 1593.4,649.6 1597.2,649.6 
		1597.2,656.6 1593.4,656.6 1593.4,662.6 1597.2,662.6 1597.2,669.5 1593.4,669.5 1593.4,675.6 1597.2,675.6 1597.2,682.5 
		1593.4,682.5 1593.4,688.6 1597.2,688.6 1597.2,695.5 1593.4,695.5 1593.4,701.5 1597.2,701.5 1597.2,708.5 1593.4,708.5 
		1593.4,714.5 1597.2,714.5 1597.2,721.4 1593.4,721.4 1593.4,727.5 1597.2,727.5 1597.2,734.4 1593.4,734.4 1593.4,740.5 
		1597.2,740.5 1597.2,747.4 1593.4,747.4 1593.4,752.6 1599.8,752.6 1599.8,764.3 1601.9,764.3 1601.9,536 1593.4,536 	"/>
	<polygon class="st1" points="1530.2,752.6 1530.2,747.4 1527.4,747.4 1527.4,740.5 1530.2,740.5 1530.2,734.4 1527.4,734.4 
		1527.4,727.5 1530.2,727.5 1530.2,721.4 1527.4,721.4 1527.4,714.5 1530.2,714.5 1530.2,708.5 1527.4,708.5 1527.4,701.5 
		1530.2,701.5 1530.2,695.5 1527.4,695.5 1527.4,688.6 1530.2,688.6 1530.2,682.5 1527.4,682.5 1527.4,675.6 1530.2,675.6 
		1530.2,669.5 1527.4,669.5 1527.4,662.6 1530.2,662.6 1530.2,656.6 1527.4,656.6 1527.4,649.6 1530.2,649.6 1530.2,643.6 
		1527.4,643.6 1527.4,636.7 1530.2,636.7 1530.2,630.6 1527.4,630.6 1527.4,623.7 1530.2,623.7 1530.2,617.6 1527.4,617.6 
		1527.4,610.7 1530.2,610.7 1530.2,604.7 1527.4,604.7 1527.4,597.7 1530.2,597.7 1530.2,591.7 1527.4,591.7 1527.4,584.8 
		1530.2,584.8 1530.2,578.8 1527.4,578.8 1527.4,571.8 1530.2,571.8 1530.2,565.7 1527.4,565.7 1527.4,558.8 1530.2,558.8 
		1530.2,553.6 1527.4,553.6 1527.4,546.7 1530.2,546.7 1530.2,544.6 1523.1,544.6 1523.1,764.3 1524.8,764.3 1524.8,752.6 	"/>
	<polygon class="st1" points="1530.2,534.7 1508,534.7 1508,544.6 1515.9,544.6 1523.1,544.6 1530.2,544.6 	"/>
	<rect x="1834" y="565.7" class="st1" width="3.3" height="0.5"/>
	<rect x="1601.9" y="536" class="st1" width="5" height="39.7"/>
	<path class="st1" d="M1927.7,536.3V536h-140.8v1.2h-6.5V536h-8.5v1.2h-14.3V536h-8.4v1.2h-6.5V536h-42.9c-0.5,0.2-1,0.3-1.5,0.3
		h-15.5c-0.5,0-1-0.1-1.5-0.3h-6.8v11.7c0.4-0.1,0.8-0.2,1.1-0.2h3.2c2.6,0,4.5,2.7,4.5,6s-2.1,6-4.5,6h-3.3c-0.4,0-0.8-0.1-1.1-0.2
		v11.1h17.3c0.7-1.3,2.1-2.1,3.7-2.2l0,0c1.6,0.1,3,0.9,3.7,2.2h43.6v-5.7h6.5v5.7h8.4v-5.7h14.3v5.7h8.5v-5.7h6.5v5.7h1.6v5.2h9.2
		c-0.2-0.6-0.2-1.2-0.2-1.8c0-3.1,1.9-5.6,4.3-5.6h3.8V560h25.1v-0.5h6.8v-3.8h37v-8.3h9.8v8.3h13.3v19.9h44.3v-39.2L1927.7,536.3z
		 M1749.1,559.7h-6.5v-6h6.5V559.7z M1749.1,548.4h-6.5v-6h6.5V548.4z M1771.8,559.7h-14.3v-6h14.3V559.7z M1771.8,548.4h-14.3v-6
		h14.3V548.4z M1786.9,559.7h-6.5v-6h6.5V559.7z M1786.9,548.4h-6.5v-6h6.5V548.4z M1818.2,549.3c0,3.8-2.4,6.9-5.2,6.9l0,0
		c-2.9,0-5.2-3.1-5.2-6.9v-5.2c0-3.8,2.4-6.9,5.2-6.9l0,0c2.9,0,5.2,3.1,5.2,6.9V549.3z M1865.6,554.5h-35.1v-6h35.1V554.5z
		 M1907.5,567.9c0,1.7-1,3.1-2.3,3.1s-2.3-1.4-2.3-3.1v-7.8c0-1.7,1-3,2.3-3s2.3,1.4,2.3,3V567.9z M1921.9,569.2c0,3.3-2.1,6-4.5,6
		s-4.5-2.7-4.5-6v-1.8c0-3.3,2.1-6,4.5-6s4.5,2.7,4.5,6V569.2z"/>
	<path class="st1" d="M1671.7,570.6h2.6v-11.1c-2-0.7-3.5-3.1-3.5-5.9s1.5-5.2,3.5-5.9V536h-27.6v300h-38.3v3.4h65.9V601.6h-2.6
		V570.6z"/>
	<path class="st1" d="M1787,570.6v0.4h-6.5v-0.4h-8.5v0.4h-14.3v-0.4h-8.4v0.4h-1.8v5.2h1.8v6h-1.8v5.2h1.8v6.1h-1.8v5.2h1.8v6h-5
		v5.2h5v6h-5v5.2h5v6h-5v5.2h5v6h-5v5.2h5v6h-5v5.1h5v6h-5v5.2h5v6h-5v5.2h5v6h-5v5.2h5v6h-5v5.2h5v6h-5v5.2h5v6h-5v5.2h5v6h-5v5.2
		h5v6h-5v5.2h5v6h-5v5.2h5v6h-5v5.2h5v6h-5v5.1h5v6h-5v5.2h5v0.5h3.3v-0.5h0.8V594.7h27.3v3h6.3v6h-6.3v5.2h6.3v6h-6.3v5.2h6.3v6
		h-6.3v5.2h6.3v6h-6.3v5.2h6.3v6h-6.3v5.2h6.3v6h-6.3v5.2h6.3v6h-6.3v5.2h6.3v6h-6.3v5.2h6.3v6h-6.3v5.2h6.3v6h-6.3v5.2h6.3v6h-6.3
		v5.2h6.3v6h-6.3v5.2h6.3v6h-6.3v5.2h6.3v6h-6.3v5.2h6.3v6h-6.3v5.2h6.3v6h-6.3v5.1h6.3v6h-6.3v5.2h6.3v0.5h1.6V568.8L1787,570.6
		L1787,570.6z M1771.9,593.4h-14.3v-6h14.3V593.4z M1771.9,582.2h-14.3v-6h14.3V582.2z M1787,593.4h-6.5v-6h6.5V593.4z M1787,582.2
		h-6.5v-6h6.5V582.2z"/>
	<path class="st1" d="M1777.2,790.2h3.3v-0.5h0.2v-5.2h-0.2v-6h0.2v-5.2h-0.2v-6h0.2v-5.2h-0.2v-6h0.2v-5.2h-0.2v-6h0.2v-5.2h-0.2
		v-6h0.2v-5.2h-0.2v-6h0.2v-5.1h-0.2v-6h0.2v-5.2h-0.2v-6h0.2V695h-0.2v-6h0.2v-5.2h-0.2v-6h0.2v-5.2h-0.2v-6h0.2v-5.2h-0.2v-6h0.2
		v-5.2h-0.2v-6h0.2V639h-0.2v-6h0.2v-5.2h-0.2v-6h0.2v-5.2h-0.2v-6h0.2v-5.2h-0.2v-6h0.2v-3h-27.4v194.2h23.9V790.2z M1771.9,784.6
		h-14.3v-6h14.3V784.6z M1771.9,773.3h-14.3v-6h14.3V773.3z M1771.9,762.1h-14.3v-6h14.3V762.1z M1771.9,750.9h-14.3v-6h14.3V750.9z
		 M1771.9,739.6h-14.3v-6h14.3V739.6z M1771.9,728.4h-14.3v-6h14.3V728.4z M1771.9,717.1h-14.3v-6h14.3V717.1z M1771.9,705.9h-14.3
		v-6h14.3V705.9z M1771.9,694.6h-14.3v-6h14.3V694.6z M1771.9,683.4h-14.3v-6h14.3V683.4z M1771.9,672.1h-14.3v-6h14.3V672.1z
		 M1771.9,660.9h-14.3v-6h14.3V660.9z M1771.9,649.6h-14.3v-6h14.3V649.6z M1771.9,638.4h-14.3v-6h14.3V638.4z M1771.9,627.1h-14.3
		v-6h14.3V627.1z M1771.9,616h-14.3v-6h14.3V616z M1771.9,604.7h-14.3v-6h14.3V604.7z"/>
	<path class="st1" d="M1747.3,598.6v-5.1h-4.7v-6h4.7v-5.2h-4.7v-6h4.7v-5.2h-4.7v-0.4H1699c0.8,1.3,1.3,2.8,1.2,4.3v3.4
		c0,3.5-2.2,6.5-4.8,6.5l0,0c-2.7,0-4.8-2.9-4.8-6.5V575c0-1.5,0.4-3,1.2-4.3h-19.9v31.2h32.6v-15.5h28.7v15.5h9.6v-3.1
		L1747.3,598.6z"/>
	<path class="st1" d="M1704.3,586.1v31.2h28.7v-31.2H1704.3z M1713.2,614.2v-25.9h13.1v25.9H1713.2z"/>
	<polygon class="st1" points="1830.5,588.2 1830.5,582.2 1830.8,582.2 1830.8,577 1830.5,577 1830.5,570.9 1830.8,570.9 
		1830.8,566.2 1834,566.2 1834,565.7 1830.5,565.7 1830.5,560.2 1805.4,560.2 1805.4,568.3 1813.9,568.3 1813.9,566.2 1825.5,566.2 
		1825.5,591.3 1830.8,591.3 1830.8,588.2 	"/>
	<rect x="1805.4" y="579.6" class="st1" width="8.5" height="11.7"/>
	<path class="st1" d="M1825.5,566.2h-11.8v2.1h0.1c2.4,0,4.3,2.5,4.3,5.6s-1.9,5.6-4.3,5.6h-0.1v26.4h11.8V566.2L1825.5,566.2z"/>
	<polygon class="st1" points="1834,591.3 1834,588.2 1830.8,588.2 1830.8,591.3 1830.8,593.4 1834,593.4 	"/>
	<polygon class="st1" points="1837.3,570.9 1837.3,566.2 1834,566.2 1830.8,566.2 1830.8,570.9 	"/>
	<polygon class="st1" points="1834,580.9 1837.3,580.9 1837.3,577 1830.8,577 1830.8,582.2 1834,582.2 	"/>
	<rect x="1834" y="580.9" class="st1" width="3.3" height="1.2"/>
	<polygon class="st1" points="1837.3,588.2 1834,588.2 1834,591.3 1834,593.4 1837.3,593.4 1837.3,591.3 	"/>
	<polygon class="st1" points="1865.6,565.7 1837.3,565.7 1837.3,566.2 1837.3,570.9 1865.6,570.9 1865.6,577 1837.3,577 
		1837.3,580.9 1837.3,582.2 1865.6,582.2 1865.6,588.2 1837.3,588.2 1837.3,591.3 1837.3,593.4 1865.6,593.4 1865.6,599.5 
		1837.3,599.5 1837.3,604 1865.6,604 1865.6,610 1837.3,610 1837.3,615 1865.6,615 1865.6,621.1 1837.3,621.1 1837.3,626.2 
		1865.6,626.2 1865.6,632.2 1837.3,632.2 1837.3,637.3 1865.6,637.3 1865.6,643.3 1837.3,643.3 1837.3,648.3 1865.6,648.3 
		1865.6,654.4 1837.3,654.4 1837.3,659.5 1865.6,659.5 1865.6,665.5 1837.3,665.5 1837.3,670.5 1865.6,670.5 1865.6,676.6 
		1837.3,676.6 1837.3,681.6 1865.6,681.6 1865.6,687.7 1837.3,687.7 1837.3,692.8 1865.6,692.8 1865.6,698.8 1837.3,698.8 
		1837.3,703.8 1865.6,703.8 1865.6,709.9 1837.3,709.9 1837.3,715 1865.6,715 1865.6,721 1837.3,721 1837.3,726.1 1865.6,726.1 
		1865.6,732.1 1837.3,732.1 1837.3,737.1 1865.6,737.1 1865.6,743.2 1837.3,743.2 1837.3,748.3 1865.6,748.3 1865.6,754.3 
		1837.3,754.3 1837.3,759.4 1865.6,759.4 1865.6,765.4 1837.3,765.4 1837.3,769.9 1865.6,769.9 1865.6,775.9 1837.3,775.9 
		1837.3,781.1 1865.6,781.1 1865.6,787.2 1837.3,787.2 1837.3,792.4 1865.6,792.4 1865.6,798.4 1837.3,798.4 1837.3,803.6 
		1865.6,803.6 1865.6,809.7 1837.3,809.7 1837.3,814.9 1865.6,814.9 1865.6,817 1874.3,817 1874.3,555.9 1837.3,555.9 1837.3,559.7 
		1865.6,559.7 	"/>
	<polygon class="st1" points="1884.1,555.9 1884.1,818.3 1881.9,820.4 1897.3,820.4 1897.3,575.7 1897.3,555.9 	"/>
	<rect x="1530.2" y="578.8" class="st1" width="63.2" height="6"/>
	<rect x="1530.2" y="553.6" class="st1" width="63.2" height="5.2"/>
	<rect x="1530.2" y="591.7" class="st1" width="63.2" height="6"/>
	<rect x="1530.2" y="565.7" class="st1" width="63.2" height="6"/>
	<polygon class="st1" points="1530.2,544.6 1530.2,546.7 1593.4,546.7 1593.4,536 1533.4,536 1533.4,534.7 1530.2,534.7 	"/>
	<path class="st1" d="M1927.7,505.4h-13.1v6.7h-7.2v16.4h-49.8v-16.4h-62.9v-6.7h-83.5v10.1h-50.8v-10.1h-13.6V536h34.4
		c-1.8-0.8-3.2-3.1-3.2-5.8c0-3.3,2.1-6,4.5-6h15.6c2.6,0,4.5,2.7,4.5,6c0,2.7-1.3,4.9-3.2,5.8h42.9v-4.8h6.5v4.8h8.4v-4.8h14.3v4.8
		h8.5v-4.8h6.5v4.8h140.8v-30.6H1927.7z M1783.3,521.6h-20.2c-3.1,0-5.5-3.3-5.5-7.3c0-4,2.5-7.3,5.5-7.3h20.2
		c3.1,0,5.5,3.3,5.5,7.3C1788.8,518.3,1786.4,521.6,1783.3,521.6L1783.3,521.6z"/>
	<polygon class="st1" points="1607,505.4 1570.5,505.4 1570.5,517.3 1555.2,517.3 1555.2,534.7 1533.4,534.7 1533.4,536 1593.4,536 
		1601.9,536 1601.9,536 1607,536 	"/>
	<rect x="1857.6" y="512.1" class="st1" width="49.8" height="16.4"/>
	<path class="st1" d="M1543.7,505.4h-45v5.4c0,4.1-2.5,7.3-5.5,7.3c-3.1,0-5.5-3.3-5.5-7.3v-5.4h-54.3v29.3h121.9v-17.4h-11.6V505.4
		L1543.7,505.4z"/>
	<polygon class="st3" points="947.5,505.4 947.5,563.6 947.9,563.6 957.7,563.6 970.1,563.6 983.1,563.6 990.4,563.6 1006,563.6 
		1040.5,563.6 1040.5,505.4 	"/>
	<path class="st1" d="M1146.6,509.5v-4.1h-20v58.3h37.7c0-0.3,0-0.7,0-0.9v-26c0-4.6,2.8-8.2,6.2-8.2c3.5,0,6.2,3.7,6.2,8.2v25.9
		c0,0.3,0,0.7,0,0.9h4.5v-54.1L1146.6,509.5L1146.6,509.5z"/>
	<polygon class="st1" points="1194.9,563.6 1194.9,505.4 1185.8,505.4 1185.8,563.6 1194.4,563.6 	"/>
	<polygon class="st2" points="1126.7,563.6 1126.7,505.4 1040.5,505.4 1040.5,563.6 1040.5,708.5 1041.8,708.5 1126.7,708.5 	"/>
	<rect x="1146.6" y="505.4" class="st2" width="34.5" height="4.1"/>
	<path class="st2" d="M1176.6,536.7c0-4.6-2.8-8.2-6.2-8.2c-3.5,0-6.2,3.7-6.2,8.2v25.9c0,0.3,0,0.7,0,0.9c0.4,4.1,3,7.3,6.1,7.3
		c0.4,0,0.7-0.1,1.1-0.2c2.7-0.7,4.7-3.5,5-7.2c0-0.3,0-0.7,0-0.9L1176.6,536.7z"/>
	<polygon class="st2" points="1194.9,505.4 1194.9,563.6 1194.9,768.7 1194.9,771.6 1202.7,771.6 1202.7,752.4 1202.7,505.4 	"/>
	<polygon class="st2" points="1185.8,771.6 1185.8,563.6 1185.8,505.4 1181.2,505.4 1181.2,509.5 1181.2,563.6 1181.2,771.6 	"/>
	<polygon class="st2" points="1243.8,785.4 1243.8,768.7 1243.8,505.4 1230.8,505.4 1231,768.7 1231,775.2 1231,826.7 1231,830.7 
		1243.8,812.3 1243.8,808 	"/>
	<polygon class="st2" points="1248.3,505.4 1248.3,768.7 1248.3,777.7 1256.1,777.7 1256.1,768.7 1256.1,505.4 	"/>
	<path class="st2" d="M1260.8,507v13.9c0,4.3,2.7,7.8,5.8,7.8c3.2,0,5.8-3.4,5.8-7.8V507c0-0.5,0-1-0.1-1.5h-11.5
		C1260.8,505.9,1260.8,506.5,1260.8,507z"/>
	<polygon class="st2" points="1339.6,635.8 1339.6,630.1 1339.6,581.8 1339.6,575.2 1319.4,575.2 1319.4,582.2 1319.4,582.2 
		1319.4,588.2 1319.4,588.2 1319.4,596.1 1319.4,596.1 1319.4,602.1 1319.4,602.1 1319.4,609.8 1319.4,609.8 1319.4,616 1319.4,616 
		1319.4,635.8 1319.7,635.8 	"/>
	<polygon class="st2" points="1369,648.8 1369,644.4 1369,640.1 1369,632.3 1369,626.3 1369,616 1369,609.8 1369,602.1 1369,596.1 
		1369,588.2 1369,582.2 1369,575.2 1363.1,575.2 1363.1,581.8 1363.1,613.8 1363.1,648.8 1363.1,718 1363.2,718 1369,718 	"/>
	<polygon class="st2" points="1319.4,596.1 1319.4,596.1 1281.7,596.1 1279.7,596.1 1279.7,602.1 1281.7,602.1 1319.4,602.1 
		1319.4,602.1 	"/>
	<polygon class="st2" points="1319.4,588.2 1319.4,582.2 1319.4,582.2 1281.7,582.2 1279.7,582.2 1279.7,588.2 1281.7,588.2 	"/>
	<polygon class="st2" points="1319.4,568.3 1319.4,568.3 1281.7,568.3 1279.7,568.3 1279.7,574.4 1281.7,574.4 1319.4,574.4 	"/>
	<polygon class="st2" points="1319.4,560.5 1319.4,560.5 1319.4,554.5 1319.4,554.5 1281.7,554.5 1279.7,554.5 1279.7,560.5 
		1281.7,560.5 	"/>
	<polygon class="st2" points="1319.4,546.7 1319.4,540.6 1319.4,540.6 1281.7,540.6 1279.7,540.6 1279.7,546.7 1281.7,546.7 	"/>
	<polygon class="st2" points="1319.4,532.8 1319.4,526.8 1319.4,526.8 1281.7,526.8 1279.7,526.8 1279.7,532.8 1281.7,532.8 	"/>
	<polygon class="st2" points="1319.4,560.5 1319.4,560.5 1319.4,560.5 1319.4,568.3 1319.4,568.3 1369,568.3 1371,568.3 1371,560.5 
		1369,560.5 1369,560.5 	"/>
	<polygon class="st2" points="1319.4,546.7 1319.4,546.7 1319.4,554.5 1319.4,554.5 1369,554.5 1371,554.5 1371,546.7 1369,546.7 	
		"/>
	<polygon class="st2" points="1319.4,540.6 1319.4,540.6 1369,540.6 1371,540.6 1371,532.8 1319.4,532.8 1319.4,532.8 	"/>
	<polygon class="st2" points="1371,526.8 1371,519 1319.4,519 1319.4,526.8 1319.4,526.8 	"/>
	<polygon class="st2" points="1369,602.1 1380.9,602.1 1404.2,602.1 1404.2,596.1 1380.9,596.1 1369,596.1 	"/>
	<polygon class="st2" points="1369,588.2 1380.9,588.2 1404.2,588.2 1404.2,582.2 1380.9,582.2 1369,582.2 	"/>
	<polygon class="st2" points="1369,568.3 1369,574.4 1380.9,574.4 1404.2,574.4 1404.2,568.3 1380.9,568.3 1371,568.3 	"/>
	<polygon class="st2" points="1369,554.5 1369,560.5 1369,560.5 1371,560.5 1380.9,560.5 1404.2,560.5 1404.2,554.5 1380.9,554.5 
		1371,554.5 	"/>
	<polygon class="st2" points="1369,540.6 1369,546.7 1371,546.7 1380.9,546.7 1404.2,546.7 1404.2,540.6 1380.9,540.6 1371,540.6 	
		"/>
	<polygon class="st2" points="1477.2,869.4 1493.4,869.4 1493.4,869.4 1493.5,869.4 1493.5,536.3 1477.2,536.3 	"/>
	<polygon class="st2" points="1423.7,860.2 1423.8,860.3 1423.8,536.3 1420,536.3 1419.8,536.3 1419.8,606 1419.8,869.4 	"/>
	<path class="st2" d="M1493.2,518.1c3.1,0,5.5-3.3,5.5-7.3v-5.4h-11.1v5.4C1487.7,514.9,1490.1,518.1,1493.2,518.1z"/>
	<polygon class="st2" points="1543.7,505.4 1543.7,517.3 1555.2,517.3 1570.5,517.3 1570.5,505.4 	"/>
	<polygon class="st2" points="1527.4,597.7 1527.4,604.7 1530.2,604.7 1593.4,604.7 1597.2,604.7 1597.2,597.7 1593.4,597.7 
		1530.2,597.7 	"/>
	<polygon class="st2" points="1527.4,584.8 1527.4,591.7 1530.2,591.7 1593.4,591.7 1597.2,591.7 1597.2,584.8 1593.4,584.8 
		1530.2,584.8 	"/>
	<polygon class="st2" points="1527.4,571.8 1527.4,578.8 1530.2,578.8 1593.4,578.8 1597.2,578.8 1597.2,571.8 1593.4,571.8 
		1530.2,571.8 	"/>
	<polygon class="st2" points="1527.4,558.8 1527.4,565.7 1530.2,565.7 1593.4,565.7 1597.2,565.7 1597.2,558.8 1593.4,558.8 
		1530.2,558.8 	"/>
	<polygon class="st2" points="1527.4,546.7 1527.4,553.6 1530.2,553.6 1593.4,553.6 1597.2,553.6 1597.2,546.7 1593.4,546.7 
		1530.2,546.7 	"/>
	<polygon class="st2" points="1646.7,536 1646.7,505.4 1607,505.4 1607,536 1607,575.7 1607,836 1608.4,836 1646.7,836 	"/>
	<rect x="1660.5" y="505.4" class="st5" width="50.8" height="10.1"/>
	<path class="st2" d="M1702.8,530.3c0-3.3-2.1-6-4.5-6h-15.6c-2.6,0-4.5,2.7-4.5,6c0,2.7,1.3,4.9,3.2,5.8c0.5,0.2,1,0.3,1.5,0.3
		h15.6c0.5,0,1-0.1,1.5-0.3C1701.5,535.2,1702.8,532.9,1702.8,530.3z"/>
	<path class="st2" d="M1670.8,553.6c0,2.8,1.5,5.2,3.5,5.9c0.4,0.1,0.8,0.2,1.1,0.2h3.3c2.6,0,4.5-2.7,4.5-6s-2.1-6-4.5-6h-3.3
		c-0.4,0-0.8,0.1-1.1,0.2C1672.3,548.4,1670.8,550.8,1670.8,553.6z"/>
	<path class="st2" d="M1690.4,578.3c0,3.5,2.2,6.5,4.8,6.5l0,0c2.7,0,4.8-2.9,4.8-6.5v-3.4c0-1.5-0.4-3-1.2-4.3
		c-0.7-1.3-2.1-2.1-3.7-2.2l0,0c-1.6,0.1-3,0.9-3.7,2.2c-0.8,1.3-1.3,2.8-1.2,4.3L1690.4,578.3L1690.4,578.3z"/>
	<rect x="1713.3" y="588.2" class="st2" width="13.1" height="25.9"/>
	<rect x="1757.6" y="598.6" class="st2" width="14.3" height="6"/>
	<polygon class="st2" points="1780.4,604.7 1780.6,604.7 1787,604.7 1787,598.6 1780.6,598.6 1780.4,598.6 	"/>
	<polygon class="st2" points="1749.1,598.6 1747.3,598.6 1742.6,598.6 1742.6,601.6 1742.6,604.7 1744,604.7 1749.1,604.7 	"/>
	<rect x="1757.6" y="587.3" class="st2" width="14.3" height="6"/>
	<rect x="1780.4" y="587.3" class="st2" width="6.5" height="6"/>
	<polygon class="st2" points="1742.6,587.3 1742.6,593.4 1747.3,593.4 1749.1,593.4 1749.1,587.3 1747.3,587.3 	"/>
	<rect x="1757.6" y="576.1" class="st2" width="14.3" height="6"/>
	<polygon class="st2" points="1771.9,570.9 1771.9,570.6 1771.9,564.9 1757.6,564.9 1757.6,570.6 1757.6,570.9 	"/>
	<rect x="1780.4" y="576.1" class="st2" width="6.5" height="6"/>
	<polygon class="st2" points="1787,570.9 1787,570.6 1787,564.9 1780.4,564.9 1780.4,570.6 1780.4,570.9 	"/>
	<polygon class="st2" points="1742.6,576.1 1742.6,582.2 1747.3,582.2 1749.1,582.2 1749.1,576.1 1747.3,576.1 	"/>
	<polygon class="st2" points="1747.3,570.9 1749.1,570.9 1749.1,570.6 1749.1,564.9 1742.6,564.9 1742.6,570.6 1742.6,570.9 	"/>
	<rect x="1757.6" y="553.6" class="st2" width="14.3" height="6"/>
	<rect x="1780.4" y="553.6" class="st2" width="6.5" height="6"/>
	<rect x="1742.6" y="553.6" class="st2" width="6.5" height="6"/>
	<rect x="1757.6" y="542.4" class="st2" width="14.3" height="6"/>
	<polygon class="st2" points="1757.6,531.1 1757.6,536 1757.6,537.2 1771.9,537.2 1771.9,536 1771.9,531.1 	"/>
	<rect x="1780.4" y="542.4" class="st2" width="6.5" height="6"/>
	<polygon class="st2" points="1780.4,531.1 1780.4,536 1780.4,537.2 1787,537.2 1787,536 1787,531.1 	"/>
	<rect x="1742.6" y="542.4" class="st2" width="6.5" height="6"/>
	<polygon class="st2" points="1742.6,531.1 1742.6,536 1742.6,537.2 1749.1,537.2 1749.1,536 1749.1,531.1 	"/>
	<path class="st2" d="M1788.8,514.3c0-4.1-2.5-7.3-5.5-7.3h-20.2c-3.1,0-5.5,3.3-5.5,7.3c0,4,2.5,7.3,5.5,7.3h20.2
		C1786.4,521.6,1788.8,518.3,1788.8,514.3z"/>
	<path class="st2" d="M1814,579.6c2.4,0,4.3-2.5,4.3-5.6s-1.9-5.6-4.3-5.6h-12.4c-2.4,0-4.3,2.5-4.3,5.6c0,0.6,0.1,1.2,0.2,1.8
		c0.6,2.2,2.2,3.8,4.1,3.8L1814,579.6L1814,579.6z"/>
	<path class="st2" d="M1813,537.2L1813,537.2c-2.9,0-5.2,3.1-5.2,6.9v5.2c0,3.8,2.4,6.9,5.2,6.9l0,0c2.9,0,5.2-3.1,5.2-6.9v-5.2
		C1818.2,540.2,1815.8,537.2,1813,537.2z"/>
	<polygon class="st2" points="1857.6,512.1 1907.4,512.1 1914.7,512.1 1914.7,505.4 1895.9,505.4 1895.9,507 1882.8,507 
		1882.8,505.4 1871,505.4 1871,507 1827.3,507 1827.3,505.4 1807.8,505.4 1807.8,507 1797.3,507 1797.3,505.4 1794.8,505.4 
		1794.8,512.1 	"/>
	<rect x="1797.3" y="505.4" class="st5" width="10.5" height="1.5"/>
	<rect x="1827.3" y="505.4" class="st5" width="43.7" height="1.5"/>
	<rect x="1882.8" y="505.4" class="st5" width="13.1" height="1.5"/>
	<polygon class="st2" points="1948,505.4 1927.7,505.4 1927.7,536 1927.7,536.3 1941.7,536.3 1948,536.3 1948,536 	"/>
	<polygon class="st2" points="1837.3,599.5 1865.6,599.5 1865.6,593.4 1837.3,593.4 1834,593.4 1830.8,593.4 1830.5,593.4 
		1830.5,599.5 1830.8,599.5 1834,599.5 	"/>
	<polygon class="st2" points="1865.6,588.2 1865.6,582.2 1837.3,582.2 1834,582.2 1830.8,582.2 1830.5,582.2 1830.5,588.2 
		1830.8,588.2 1834,588.2 1837.3,588.2 	"/>
	<polygon class="st2" points="1837.3,577 1865.6,577 1865.6,570.9 1837.3,570.9 1830.8,570.9 1830.5,570.9 1830.5,577 1830.8,577 	
		"/>
	<polygon class="st2" points="1834,565.7 1837.3,565.7 1865.6,565.7 1865.6,559.7 1837.3,559.7 1830.5,559.7 1830.5,560.2 
		1830.5,565.7 	"/>
	<polygon class="st2" points="1874.3,817 1874.3,818.3 1872.7,820.4 1866.7,828.1 1860,836.9 1845.5,855.6 1863.4,838.3 
		1864.8,836.9 1866.7,835.1 1881.9,820.4 1884.1,818.3 1884.1,555.9 1884.1,547.6 1874.3,547.6 1874.3,555.9 	"/>
	<rect x="1830.5" y="548.4" class="st2" width="35.1" height="6"/>
	<path class="st2" d="M1905.3,557.1c-1.3,0-2.3,1.4-2.3,3v7.8c0,1.7,1,3.1,2.3,3.1s2.3-1.4,2.3-3.1v-7.8
		C1907.5,558.5,1906.5,557.1,1905.3,557.1z"/>
	<path class="st2" d="M1917.3,561.5c-2.6,0-4.5,2.7-4.5,6v1.8c0,3.3,2.1,6,4.5,6s4.5-2.7,4.5-6v-1.8
		C1921.9,564.2,1919.8,561.5,1917.3,561.5z"/>
	<path class="st6" d="M1161.2-391.9c0.8,0,1.5-0.7,1.5-1.4s-0.7-1.4-1.5-1.4s-1.5,0.7-1.5,1.4S1160.4-391.9,1161.2-391.9z"/>
</g>
<g id="water">
	
		<linearGradient id="SVGID_1_" gradientUnits="userSpaceOnUse" x1="1313.1001" y1="-773.1434" x2="1313.1001" y2="-1034.4435" gradientTransform="matrix(1 0 0 1 0 1560)">
		<stop  offset="0.42" style="stop-color:#FFFFFF"/>
		<stop  offset="0.53" style="stop-color:#FFFFFF;stop-opacity:0.99"/>
		<stop  offset="0.6" style="stop-color:#FFFFFF;stop-opacity:0.95"/>
		<stop  offset="0.67" style="stop-color:#FFFFFF;stop-opacity:0.89"/>
		<stop  offset="0.73" style="stop-color:#FFFFFF;stop-opacity:0.8"/>
		<stop  offset="0.79" style="stop-color:#FFFFFF;stop-opacity:0.69"/>
		<stop  offset="0.85" style="stop-color:#FFFFFF;stop-opacity:0.54"/>
		<stop  offset="0.9" style="stop-color:#FFFFFF;stop-opacity:0.38"/>
		<stop  offset="0.96" style="stop-color:#FFFFFF;stop-opacity:0.19"/>
		<stop  offset="1" style="stop-color:#FFFFFF;stop-opacity:0"/>
	</linearGradient>
	<rect x="-32.9" y="525.6" class="st7" width="2692" height="261.3"/>
	<rect x="-32.9" y="525.6" class="st8" width="2692" height="261.3"/>
</g>
<g id="steamboat-top">
	<rect x="389.7" y="410.3" class="st9" width="106.2" height="34.2"/>
	<rect x="323.1" y="444.5" class="st9" width="250.9" height="34.2"/>
	<rect x="303.4" y="478.6" class="st9" width="270.4" height="34.2"/>
	<rect x="352.1" y="354.7" class="st9" width="20.8" height="89.9"/>
	<path class="st5" d="M569.7,489.6L569.7,489.6c3.5,0,6.4,3.1,6.4,7.1v2.6c0,3.9-2.9,7.1-6.4,7.1l0,0c-3.5,0-6.4-3.1-6.4-7.1v-2.6
		C563.3,492.7,566.2,489.6,569.7,489.6z"/>
	<path class="st5" d="M323.8,486.1L323.8,486.1c3.5,0,6.4,3.1,6.4,7.1v2.6c0,3.9-2.9,7.1-6.4,7.1l0,0c-3.5,0-6.4-3.1-6.4-7.1v-2.6
		C317.3,489.2,320.1,486.1,323.8,486.1z"/>
	<path class="st5" d="M346.4,486.1L346.4,486.1c3.5,0,6.4,3.1,6.4,7.1v2.6c0,3.9-2.9,7.1-6.4,7.1l0,0c-3.5,0-6.4-3.1-6.4-7.1v-2.6
		C340,489.2,342.8,486.1,346.4,486.1z"/>
	<path class="st5" d="M369.1,486.1L369.1,486.1c3.5,0,6.4,3.1,6.4,7.1v2.6c0,3.9-2.9,7.1-6.4,7.1l0,0c-3.5,0-6.4-3.1-6.4-7.1v-2.6
		C362.6,489.2,365.4,486.1,369.1,486.1z"/>
	<path class="st5" d="M391.7,486.1L391.7,486.1c3.5,0,6.4,3.1,6.4,7.1v2.6c0,3.9-2.9,7.1-6.4,7.1l0,0c-3.5,0-6.4-3.1-6.4-7.1v-2.6
		C385.3,489.2,388.2,486.1,391.7,486.1z"/>
	<path class="st5" d="M414.4,486.1L414.4,486.1c3.5,0,6.4,3.1,6.4,7.1v2.6c0,3.9-2.9,7.1-6.4,7.1l0,0c-3.5,0-6.4-3.1-6.4-7.1v-2.6
		C407.9,489.2,410.8,486.1,414.4,486.1z"/>
	<path class="st5" d="M437,486.1L437,486.1c3.5,0,6.4,3.1,6.4,7.1v2.6c0,3.9-2.9,7.1-6.4,7.1l0,0c-3.5,0-6.4-3.1-6.4-7.1v-2.6
		C430.6,489.2,433.5,486.1,437,486.1z"/>
	<path class="st5" d="M459.6,486.1L459.6,486.1c3.5,0,6.4,3.1,6.4,7.1v2.6c0,3.9-2.9,7.1-6.4,7.1l0,0c-3.5,0-6.4-3.1-6.4-7.1v-2.6
		C453.2,489.2,456.1,486.1,459.6,486.1z"/>
	<path class="st5" d="M482.3,486.1L482.3,486.1c3.5,0,6.4,3.1,6.4,7.1v2.6c0,3.9-2.9,7.1-6.4,7.1l0,0c-3.5,0-6.4-3.1-6.4-7.1v-2.6
		C475.9,489.2,478.8,486.1,482.3,486.1z"/>
	<path class="st5" d="M504.9,486.1L504.9,486.1c3.5,0,6.4,3.1,6.4,7.1v2.6c0,3.9-2.9,7.1-6.4,7.1l0,0c-3.5,0-6.4-3.1-6.4-7.1v-2.6
		C498.5,489.2,501.4,486.1,504.9,486.1z"/>
	<path class="st5" d="M527.6,486.1L527.6,486.1c3.5,0,6.4,3.1,6.4,7.1v2.6c0,3.9-2.9,7.1-6.4,7.1l0,0c-3.5,0-6.4-3.1-6.4-7.1v-2.6
		C521.2,489.2,524.1,486.1,527.6,486.1z"/>
	<path class="st5" d="M550.2,486.1L550.2,486.1c3.5,0,6.4,3.1,6.4,7.1v2.6c0,3.9-2.9,7.1-6.4,7.1l0,0c-3.5,0-6.4-3.1-6.4-7.1v-2.6
		C543.8,489.2,546.7,486.1,550.2,486.1z"/>
	<path class="st5" d="M338.6,452.7L338.6,452.7c3.5,0,6.4,3.1,6.4,7.1v2.6c0,3.9-2.9,7.1-6.4,7.1l0,0c-3.5,0-6.4-3.1-6.4-7.1v-2.6
		C332.2,455.8,335,452.7,338.6,452.7z"/>
	<path class="st5" d="M361.3,452.7L361.3,452.7c3.5,0,6.4,3.1,6.4,7.1v2.6c0,3.9-2.9,7.1-6.4,7.1l0,0c-3.5,0-6.4-3.1-6.4-7.1v-2.6
		C354.9,455.8,357.7,452.7,361.3,452.7z"/>
	<path class="st5" d="M384,452.7L384,452.7c3.5,0,6.4,3.1,6.4,7.1v2.6c0,3.9-2.9,7.1-6.4,7.1l0,0c-3.5,0-6.4-3.1-6.4-7.1v-2.6
		C377.5,455.8,380.3,452.7,384,452.7z"/>
	<path class="st5" d="M406.6,452.7L406.6,452.7c3.5,0,6.4,3.1,6.4,7.1v2.6c0,3.9-2.9,7.1-6.4,7.1l0,0c-3.5,0-6.4-3.1-6.4-7.1v-2.6
		C400.2,455.8,403,452.7,406.6,452.7z"/>
	<path class="st5" d="M429.3,452.7L429.3,452.7c3.5,0,6.4,3.1,6.4,7.1v2.6c0,3.9-2.9,7.1-6.4,7.1l0,0c-3.5,0-6.4-3.1-6.4-7.1v-2.6
		C422.8,455.8,425.6,452.7,429.3,452.7z"/>
	<path class="st5" d="M451.9,452.7L451.9,452.7c3.5,0,6.4,3.1,6.4,7.1v2.6c0,3.9-2.9,7.1-6.4,7.1l0,0c-3.5,0-6.4-3.1-6.4-7.1v-2.6
		C445.5,455.8,448.3,452.7,451.9,452.7z"/>
	<path class="st5" d="M474.5,452.7L474.5,452.7c3.5,0,6.4,3.1,6.4,7.1v2.6c0,3.9-2.9,7.1-6.4,7.1l0,0c-3.5,0-6.4-3.1-6.4-7.1v-2.6
		C468.1,455.8,471,452.7,474.5,452.7z"/>
	<path class="st5" d="M497.2,452.7L497.2,452.7c3.5,0,6.4,3.1,6.4,7.1v2.6c0,3.9-2.9,7.1-6.4,7.1l0,0c-3.5,0-6.4-3.1-6.4-7.1v-2.6
		C490.8,455.8,493.7,452.7,497.2,452.7z"/>
	<path class="st5" d="M519.8,452.7L519.8,452.7c3.5,0,6.4,3.1,6.4,7.1v2.6c0,3.9-2.9,7.1-6.4,7.1l0,0c-3.5,0-6.4-3.1-6.4-7.1v-2.6
		C513.4,455.8,516.3,452.7,519.8,452.7z"/>
	<path class="st5" d="M542.5,452.7L542.5,452.7c3.5,0,6.4,3.1,6.4,7.1v2.6c0,3.9-2.9,7.1-6.4,7.1l0,0c-3.5,0-6.4-3.1-6.4-7.1v-2.6
		C536,455.8,539,452.7,542.5,452.7z"/>
	<path class="st5" d="M565.1,452.7L565.1,452.7c3.5,0,6.4,3.1,6.4,7.1v2.6c0,3.9-2.9,7.1-6.4,7.1l0,0c-3.5,0-6.4-3.1-6.4-7.1v-2.6
		C558.7,455.8,561.6,452.7,565.1,452.7z"/>
	<path class="st5" d="M407.6,419.2L407.6,419.2c3.5,0,6.4,3.1,6.4,7.1v2.6c0,3.9-2.9,7.1-6.4,7.1l0,0c-3.5,0-6.4-3.1-6.4-7.1v-2.6
		C401.1,422.4,404,419.2,407.6,419.2z"/>
	<path class="st5" d="M430.2,419.2L430.2,419.2c3.5,0,6.4,3.1,6.4,7.1v2.6c0,3.9-2.9,7.1-6.4,7.1l0,0c-3.5,0-6.4-3.1-6.4-7.1v-2.6
		C423.8,422.4,426.7,419.2,430.2,419.2z"/>
	<path class="st5" d="M452.9,419.2L452.9,419.2c3.5,0,6.4,3.1,6.4,7.1v2.6c0,3.9-2.9,7.1-6.4,7.1l0,0c-3.5,0-6.4-3.1-6.4-7.1v-2.6
		C446.4,422.4,449.3,419.2,452.9,419.2z"/>
	<path class="st5" d="M475.5,419.2L475.5,419.2c3.5,0,6.4,3.1,6.4,7.1v2.6c0,3.9-2.9,7.1-6.4,7.1l0,0c-3.5,0-6.4-3.1-6.4-7.1v-2.6
		C469.1,422.4,472,419.2,475.5,419.2z"/>
	<rect x="295" y="475.7" class="st10" width="283.7" height="5.9"/>
	<rect x="315" y="443" class="st10" width="263.8" height="5.9"/>
	<rect x="381.9" y="407.4" class="st10" width="119.7" height="5.9"/>
	<path class="st10" d="M566.1,541.4c39.6-22.4,53.8-50.3,53.8-50.3h-64.5l-28.8,19.1L333,512l-97.8-20.8c0,0,23.7,27.9,74.5,50.3
		L566.1,541.4z"/>
	
		<ellipse transform="matrix(0.9892 -0.1465 0.1465 0.9892 -45.3429 59.4286)" class="st11" cx="380.8" cy="337.5" rx="15.4" ry="11"/>
	
		<ellipse transform="matrix(0.991 -0.1339 0.1339 0.991 -38.9174 58.2497)" class="st11" cx="413.6" cy="318.5" rx="15.4" ry="11.8"/>
	
		<ellipse transform="matrix(0.9635 -0.2678 0.2678 0.9635 -63.4944 131.984)" class="st11" cx="452.1" cy="298.8" rx="18.1" ry="12.7"/>
	
		<ellipse transform="matrix(0.9639 -0.2662 0.2662 0.9639 -56.1524 143.0508)" class="st11" cx="499.6" cy="278.7" rx="23.8" ry="16"/>
</g>
</svg>
