<svg id="Group" xmlns="http://www.w3.org/2000/svg" width="90" height="90" viewBox="0 0 90 90">
  <g id="logo_dark" data-name="logo/dark">
    <g id="Group-2" data-name="Group">
      <g id="Group_2" data-name="Group 2" transform="translate(17 17)">
        <g id="Rectangle_3" data-name="Rectangle 3" transform="translate(29.45 29.949)" fill="#253c70" stroke-miterlimit="10">
          <path d="M 30.54243087768555 29.05084419250488 L 26.60000038146973 29.05084419250488 L 12.68159008026123 29.05084419250488 L 11.66699028015137 29.05084419250488 L 11.06772041320801 28.23212432861328 L -1.613869786262512 10.906494140625 L -2.459029912948608 9.75184440612793 L -1.639069795608521 8.579154014587402 L 5.160920143127441 -1.146055936813354 L 6.762770175933838 -3.436995983123779 L 8.413860321044922 -1.181275963783264 L 28.21387100219727 25.86956405639648 L 30.54243087768555 29.05084419250488 Z" stroke="none"/>
          <path d="M 6.79998779296875 -1.9073486328125e-06 L 0 9.725210189819336 L 12.68158721923828 27.05084991455078 L 26.60000038146973 27.05084991455078 L 6.79998779296875 -1.9073486328125e-06 M 6.725561141967773 -6.874002456665039 L 10.02771949768066 -2.36256217956543 L 29.82773399353027 24.68828964233398 L 34.48485565185547 31.05084991455078 L 26.60000038146973 31.05084991455078 L 12.68158721923828 31.05084991455078 L 10.65237331390381 31.05084991455078 L 9.453840255737305 29.41341018676758 L -3.227746963500977 12.08777046203613 L -4.918052673339844 9.778463363647461 L -3.278146743774414 7.433090209960938 L 3.521841049194336 -2.292121887207031 L 6.725561141967773 -6.874002456665039 Z" stroke="none" fill="#fff"/>
        </g>
        <g id="Combined_Shape" data-name="Combined Shape" fill="#253c70" stroke-miterlimit="10">
          <path d="M 15.24970149993896 58.99970245361328 L 14.24970149993896 58.99970245361328 L 1.226806602971919e-06 58.99970245361328 L -1.999998807907104 58.99970245361328 L -1.999998807907104 56.99970245361328 L -1.999998807907104 1.226806602971919e-06 L -1.999998807907104 -1.999998807907104 L 1.226806602971919e-06 -1.999998807907104 L 14.24970149993896 -1.999998807907104 L 16.24970054626465 -1.999998807907104 L 16.24970054626465 1.226806602971919e-06 L 16.24970054626465 32.00022506713867 L 41.15000152587891 -1.199998736381531 L 41.75 -1.999998807907104 L 42.75 -1.999998807907104 L 56.99970245361328 -1.999998807907104 L 60.99971008300781 -1.999998807907104 L 58.59970092773438 1.200001239776611 L 15.84970092773438 58.19969940185547 L 15.24970149993896 58.99970245361328 Z" stroke="none"/>
          <path d="M 14.24970149993896 56.99970245361328 L 56.99970245361328 1.226806602971919e-06 L 42.75 1.226806602971919e-06 L 14.24970149993896 38.00020217895508 L 14.24970149993896 1.226806602971919e-06 L 1.226806602971919e-06 1.226806602971919e-06 L 1.226806602971919e-06 56.99970245361328 L 14.24970149993896 56.99970245361328 M 16.24970054626465 60.99970245361328 L 14.24970149993896 60.99970245361328 L 1.226806602971919e-06 60.99970245361328 L -3.999998807907104 60.99970245361328 L -3.999998807907104 56.99970245361328 L -3.999998807907104 1.226806602971919e-06 L -3.999998807907104 -3.999998807907104 L 1.226806602971919e-06 -3.999998807907104 L 14.24970149993896 -3.999998807907104 L 18.24970054626465 -3.999998807907104 L 18.24970054626465 1.226806602971919e-06 L 18.24970054626465 26.00025177001953 L 39.55000305175781 -2.399998664855957 L 40.75 -3.999998807907104 L 42.75 -3.999998807907104 L 56.99970245361328 -3.999998807907104 L 64.99973297119141 -3.999998807907104 L 60.19969940185547 2.400001287460327 L 17.4497013092041 59.39970016479492 L 16.24970054626465 60.99970245361328 Z" stroke="none" fill="#fff"/>
        </g>
      </g>
    </g>
  </g>
  <g id="Rectangle_2" data-name="Rectangle 2" fill="none" stroke="#253c70" stroke-miterlimit="10" stroke-width="4">
    <rect width="90" height="90" stroke="none"/>
    <rect x="2" y="2" width="86" height="86" fill="none"/>
  </g>
</svg>
